M48
; DRILL file {KiCad (5.1.4)-1} date 18.01.2020 16:32:54
; FORMAT={-:-/ absolute / metric / decimal}
; #@! TF.CreationDate,2020-01-18T16:32:54+01:00
; #@! TF.GenerationSoftware,Kicad,Pcbnew,(5.1.4)-1
; #@! TF.FileFunction,Plated,1,2,PTH
FMAT,2
METRIC
T1C1.000
T2C1.016
T3C1.100
T4C1.400
%
G90
G05
T1
X49.9Y-17.0
X49.9Y-19.54
X49.9Y-22.08
X49.9Y-24.62
X49.9Y-27.16
X4.1Y-18.38
X4.1Y-20.92
X4.1Y-23.46
X4.1Y-26.0
T2
X21.9Y-9.46
X21.9Y-12.0
X24.44Y-9.46
X24.44Y-12.0
X26.98Y-9.46
X26.98Y-12.0
X29.52Y-9.46
X29.52Y-12.0
X32.06Y-9.46
X32.06Y-12.0
T3
X23.8Y-22.5
X23.8Y-27.0
X30.3Y-22.5
X30.3Y-27.0
T4
X35.0Y-18.0
X19.0Y-18.0
T0
M30
