G04 #@! TF.GenerationSoftware,KiCad,Pcbnew,(5.1.4)-1*
G04 #@! TF.CreationDate,2020-01-18T16:32:49+01:00*
G04 #@! TF.ProjectId,project_gtag,70726f6a-6563-4745-9f67-7461672e6b69,V3*
G04 #@! TF.SameCoordinates,PX7735940PY44aa200*
G04 #@! TF.FileFunction,Soldermask,Bot*
G04 #@! TF.FilePolarity,Negative*
%FSLAX46Y46*%
G04 Gerber Fmt 4.6, Leading zero omitted, Abs format (unit mm)*
G04 Created by KiCad (PCBNEW (5.1.4)-1) date 2020-01-18 16:32:49*
%MOMM*%
%LPD*%
G04 APERTURE LIST*
%ADD10C,0.100000*%
%ADD11C,1.650000*%
%ADD12R,2.100000X2.100000*%
%ADD13O,2.100000X2.100000*%
%ADD14C,2.400000*%
%ADD15C,3.200000*%
%ADD16R,2.127200X2.127200*%
%ADD17O,2.127200X2.127200*%
G04 APERTURE END LIST*
D10*
G36*
X35577346Y-11376589D02*
G01*
X35609380Y-11381341D01*
X35640794Y-11389210D01*
X35671286Y-11400120D01*
X35700561Y-11413966D01*
X35728338Y-11430615D01*
X35754350Y-11449907D01*
X35778345Y-11471655D01*
X35800093Y-11495650D01*
X35819385Y-11521662D01*
X35836034Y-11549439D01*
X35849880Y-11578714D01*
X35860790Y-11609206D01*
X35868659Y-11640620D01*
X35873411Y-11672654D01*
X35875000Y-11705000D01*
X35875000Y-12695000D01*
X35873411Y-12727346D01*
X35868659Y-12759380D01*
X35860790Y-12790794D01*
X35849880Y-12821286D01*
X35836034Y-12850561D01*
X35819385Y-12878338D01*
X35800093Y-12904350D01*
X35778345Y-12928345D01*
X35754350Y-12950093D01*
X35728338Y-12969385D01*
X35700561Y-12986034D01*
X35671286Y-12999880D01*
X35640794Y-13010790D01*
X35609380Y-13018659D01*
X35577346Y-13023411D01*
X35545000Y-13025000D01*
X34055000Y-13025000D01*
X34022654Y-13023411D01*
X33990620Y-13018659D01*
X33959206Y-13010790D01*
X33928714Y-12999880D01*
X33899439Y-12986034D01*
X33871662Y-12969385D01*
X33845650Y-12950093D01*
X33821655Y-12928345D01*
X33799907Y-12904350D01*
X33780615Y-12878338D01*
X33763966Y-12850561D01*
X33750120Y-12821286D01*
X33739210Y-12790794D01*
X33731341Y-12759380D01*
X33726589Y-12727346D01*
X33725000Y-12695000D01*
X33725000Y-11705000D01*
X33726589Y-11672654D01*
X33731341Y-11640620D01*
X33739210Y-11609206D01*
X33750120Y-11578714D01*
X33763966Y-11549439D01*
X33780615Y-11521662D01*
X33799907Y-11495650D01*
X33821655Y-11471655D01*
X33845650Y-11449907D01*
X33871662Y-11430615D01*
X33899439Y-11413966D01*
X33928714Y-11400120D01*
X33959206Y-11389210D01*
X33990620Y-11381341D01*
X34022654Y-11376589D01*
X34055000Y-11375000D01*
X35545000Y-11375000D01*
X35577346Y-11376589D01*
X35577346Y-11376589D01*
G37*
D11*
X34800000Y-12200000D03*
D10*
G36*
X35577346Y-8576589D02*
G01*
X35609380Y-8581341D01*
X35640794Y-8589210D01*
X35671286Y-8600120D01*
X35700561Y-8613966D01*
X35728338Y-8630615D01*
X35754350Y-8649907D01*
X35778345Y-8671655D01*
X35800093Y-8695650D01*
X35819385Y-8721662D01*
X35836034Y-8749439D01*
X35849880Y-8778714D01*
X35860790Y-8809206D01*
X35868659Y-8840620D01*
X35873411Y-8872654D01*
X35875000Y-8905000D01*
X35875000Y-9895000D01*
X35873411Y-9927346D01*
X35868659Y-9959380D01*
X35860790Y-9990794D01*
X35849880Y-10021286D01*
X35836034Y-10050561D01*
X35819385Y-10078338D01*
X35800093Y-10104350D01*
X35778345Y-10128345D01*
X35754350Y-10150093D01*
X35728338Y-10169385D01*
X35700561Y-10186034D01*
X35671286Y-10199880D01*
X35640794Y-10210790D01*
X35609380Y-10218659D01*
X35577346Y-10223411D01*
X35545000Y-10225000D01*
X34055000Y-10225000D01*
X34022654Y-10223411D01*
X33990620Y-10218659D01*
X33959206Y-10210790D01*
X33928714Y-10199880D01*
X33899439Y-10186034D01*
X33871662Y-10169385D01*
X33845650Y-10150093D01*
X33821655Y-10128345D01*
X33799907Y-10104350D01*
X33780615Y-10078338D01*
X33763966Y-10050561D01*
X33750120Y-10021286D01*
X33739210Y-9990794D01*
X33731341Y-9959380D01*
X33726589Y-9927346D01*
X33725000Y-9895000D01*
X33725000Y-8905000D01*
X33726589Y-8872654D01*
X33731341Y-8840620D01*
X33739210Y-8809206D01*
X33750120Y-8778714D01*
X33763966Y-8749439D01*
X33780615Y-8721662D01*
X33799907Y-8695650D01*
X33821655Y-8671655D01*
X33845650Y-8649907D01*
X33871662Y-8630615D01*
X33899439Y-8613966D01*
X33928714Y-8600120D01*
X33959206Y-8589210D01*
X33990620Y-8581341D01*
X34022654Y-8576589D01*
X34055000Y-8575000D01*
X35545000Y-8575000D01*
X35577346Y-8576589D01*
X35577346Y-8576589D01*
G37*
D11*
X34800000Y-9400000D03*
D10*
G36*
X18177346Y-21976589D02*
G01*
X18209380Y-21981341D01*
X18240794Y-21989210D01*
X18271286Y-22000120D01*
X18300561Y-22013966D01*
X18328338Y-22030615D01*
X18354350Y-22049907D01*
X18378345Y-22071655D01*
X18400093Y-22095650D01*
X18419385Y-22121662D01*
X18436034Y-22149439D01*
X18449880Y-22178714D01*
X18460790Y-22209206D01*
X18468659Y-22240620D01*
X18473411Y-22272654D01*
X18475000Y-22305000D01*
X18475000Y-23295000D01*
X18473411Y-23327346D01*
X18468659Y-23359380D01*
X18460790Y-23390794D01*
X18449880Y-23421286D01*
X18436034Y-23450561D01*
X18419385Y-23478338D01*
X18400093Y-23504350D01*
X18378345Y-23528345D01*
X18354350Y-23550093D01*
X18328338Y-23569385D01*
X18300561Y-23586034D01*
X18271286Y-23599880D01*
X18240794Y-23610790D01*
X18209380Y-23618659D01*
X18177346Y-23623411D01*
X18145000Y-23625000D01*
X16655000Y-23625000D01*
X16622654Y-23623411D01*
X16590620Y-23618659D01*
X16559206Y-23610790D01*
X16528714Y-23599880D01*
X16499439Y-23586034D01*
X16471662Y-23569385D01*
X16445650Y-23550093D01*
X16421655Y-23528345D01*
X16399907Y-23504350D01*
X16380615Y-23478338D01*
X16363966Y-23450561D01*
X16350120Y-23421286D01*
X16339210Y-23390794D01*
X16331341Y-23359380D01*
X16326589Y-23327346D01*
X16325000Y-23295000D01*
X16325000Y-22305000D01*
X16326589Y-22272654D01*
X16331341Y-22240620D01*
X16339210Y-22209206D01*
X16350120Y-22178714D01*
X16363966Y-22149439D01*
X16380615Y-22121662D01*
X16399907Y-22095650D01*
X16421655Y-22071655D01*
X16445650Y-22049907D01*
X16471662Y-22030615D01*
X16499439Y-22013966D01*
X16528714Y-22000120D01*
X16559206Y-21989210D01*
X16590620Y-21981341D01*
X16622654Y-21976589D01*
X16655000Y-21975000D01*
X18145000Y-21975000D01*
X18177346Y-21976589D01*
X18177346Y-21976589D01*
G37*
D11*
X17400000Y-22800000D03*
D10*
G36*
X18177346Y-24776589D02*
G01*
X18209380Y-24781341D01*
X18240794Y-24789210D01*
X18271286Y-24800120D01*
X18300561Y-24813966D01*
X18328338Y-24830615D01*
X18354350Y-24849907D01*
X18378345Y-24871655D01*
X18400093Y-24895650D01*
X18419385Y-24921662D01*
X18436034Y-24949439D01*
X18449880Y-24978714D01*
X18460790Y-25009206D01*
X18468659Y-25040620D01*
X18473411Y-25072654D01*
X18475000Y-25105000D01*
X18475000Y-26095000D01*
X18473411Y-26127346D01*
X18468659Y-26159380D01*
X18460790Y-26190794D01*
X18449880Y-26221286D01*
X18436034Y-26250561D01*
X18419385Y-26278338D01*
X18400093Y-26304350D01*
X18378345Y-26328345D01*
X18354350Y-26350093D01*
X18328338Y-26369385D01*
X18300561Y-26386034D01*
X18271286Y-26399880D01*
X18240794Y-26410790D01*
X18209380Y-26418659D01*
X18177346Y-26423411D01*
X18145000Y-26425000D01*
X16655000Y-26425000D01*
X16622654Y-26423411D01*
X16590620Y-26418659D01*
X16559206Y-26410790D01*
X16528714Y-26399880D01*
X16499439Y-26386034D01*
X16471662Y-26369385D01*
X16445650Y-26350093D01*
X16421655Y-26328345D01*
X16399907Y-26304350D01*
X16380615Y-26278338D01*
X16363966Y-26250561D01*
X16350120Y-26221286D01*
X16339210Y-26190794D01*
X16331341Y-26159380D01*
X16326589Y-26127346D01*
X16325000Y-26095000D01*
X16325000Y-25105000D01*
X16326589Y-25072654D01*
X16331341Y-25040620D01*
X16339210Y-25009206D01*
X16350120Y-24978714D01*
X16363966Y-24949439D01*
X16380615Y-24921662D01*
X16399907Y-24895650D01*
X16421655Y-24871655D01*
X16445650Y-24849907D01*
X16471662Y-24830615D01*
X16499439Y-24813966D01*
X16528714Y-24800120D01*
X16559206Y-24789210D01*
X16590620Y-24781341D01*
X16622654Y-24776589D01*
X16655000Y-24775000D01*
X18145000Y-24775000D01*
X18177346Y-24776589D01*
X18177346Y-24776589D01*
G37*
D11*
X17400000Y-25600000D03*
D10*
G36*
X21177346Y-21976589D02*
G01*
X21209380Y-21981341D01*
X21240794Y-21989210D01*
X21271286Y-22000120D01*
X21300561Y-22013966D01*
X21328338Y-22030615D01*
X21354350Y-22049907D01*
X21378345Y-22071655D01*
X21400093Y-22095650D01*
X21419385Y-22121662D01*
X21436034Y-22149439D01*
X21449880Y-22178714D01*
X21460790Y-22209206D01*
X21468659Y-22240620D01*
X21473411Y-22272654D01*
X21475000Y-22305000D01*
X21475000Y-23295000D01*
X21473411Y-23327346D01*
X21468659Y-23359380D01*
X21460790Y-23390794D01*
X21449880Y-23421286D01*
X21436034Y-23450561D01*
X21419385Y-23478338D01*
X21400093Y-23504350D01*
X21378345Y-23528345D01*
X21354350Y-23550093D01*
X21328338Y-23569385D01*
X21300561Y-23586034D01*
X21271286Y-23599880D01*
X21240794Y-23610790D01*
X21209380Y-23618659D01*
X21177346Y-23623411D01*
X21145000Y-23625000D01*
X19655000Y-23625000D01*
X19622654Y-23623411D01*
X19590620Y-23618659D01*
X19559206Y-23610790D01*
X19528714Y-23599880D01*
X19499439Y-23586034D01*
X19471662Y-23569385D01*
X19445650Y-23550093D01*
X19421655Y-23528345D01*
X19399907Y-23504350D01*
X19380615Y-23478338D01*
X19363966Y-23450561D01*
X19350120Y-23421286D01*
X19339210Y-23390794D01*
X19331341Y-23359380D01*
X19326589Y-23327346D01*
X19325000Y-23295000D01*
X19325000Y-22305000D01*
X19326589Y-22272654D01*
X19331341Y-22240620D01*
X19339210Y-22209206D01*
X19350120Y-22178714D01*
X19363966Y-22149439D01*
X19380615Y-22121662D01*
X19399907Y-22095650D01*
X19421655Y-22071655D01*
X19445650Y-22049907D01*
X19471662Y-22030615D01*
X19499439Y-22013966D01*
X19528714Y-22000120D01*
X19559206Y-21989210D01*
X19590620Y-21981341D01*
X19622654Y-21976589D01*
X19655000Y-21975000D01*
X21145000Y-21975000D01*
X21177346Y-21976589D01*
X21177346Y-21976589D01*
G37*
D11*
X20400000Y-22800000D03*
D10*
G36*
X21177346Y-24776589D02*
G01*
X21209380Y-24781341D01*
X21240794Y-24789210D01*
X21271286Y-24800120D01*
X21300561Y-24813966D01*
X21328338Y-24830615D01*
X21354350Y-24849907D01*
X21378345Y-24871655D01*
X21400093Y-24895650D01*
X21419385Y-24921662D01*
X21436034Y-24949439D01*
X21449880Y-24978714D01*
X21460790Y-25009206D01*
X21468659Y-25040620D01*
X21473411Y-25072654D01*
X21475000Y-25105000D01*
X21475000Y-26095000D01*
X21473411Y-26127346D01*
X21468659Y-26159380D01*
X21460790Y-26190794D01*
X21449880Y-26221286D01*
X21436034Y-26250561D01*
X21419385Y-26278338D01*
X21400093Y-26304350D01*
X21378345Y-26328345D01*
X21354350Y-26350093D01*
X21328338Y-26369385D01*
X21300561Y-26386034D01*
X21271286Y-26399880D01*
X21240794Y-26410790D01*
X21209380Y-26418659D01*
X21177346Y-26423411D01*
X21145000Y-26425000D01*
X19655000Y-26425000D01*
X19622654Y-26423411D01*
X19590620Y-26418659D01*
X19559206Y-26410790D01*
X19528714Y-26399880D01*
X19499439Y-26386034D01*
X19471662Y-26369385D01*
X19445650Y-26350093D01*
X19421655Y-26328345D01*
X19399907Y-26304350D01*
X19380615Y-26278338D01*
X19363966Y-26250561D01*
X19350120Y-26221286D01*
X19339210Y-26190794D01*
X19331341Y-26159380D01*
X19326589Y-26127346D01*
X19325000Y-26095000D01*
X19325000Y-25105000D01*
X19326589Y-25072654D01*
X19331341Y-25040620D01*
X19339210Y-25009206D01*
X19350120Y-24978714D01*
X19363966Y-24949439D01*
X19380615Y-24921662D01*
X19399907Y-24895650D01*
X19421655Y-24871655D01*
X19445650Y-24849907D01*
X19471662Y-24830615D01*
X19499439Y-24813966D01*
X19528714Y-24800120D01*
X19559206Y-24789210D01*
X19590620Y-24781341D01*
X19622654Y-24776589D01*
X19655000Y-24775000D01*
X21145000Y-24775000D01*
X21177346Y-24776589D01*
X21177346Y-24776589D01*
G37*
D11*
X20400000Y-25600000D03*
D12*
X49900000Y-17000000D03*
D13*
X49900000Y-19540000D03*
X49900000Y-22080000D03*
X49900000Y-24620000D03*
X49900000Y-27160000D03*
D12*
X4100000Y-26000000D03*
D13*
X4100000Y-23460000D03*
X4100000Y-20920000D03*
X4100000Y-18380000D03*
D10*
G36*
X7627346Y-19826589D02*
G01*
X7659380Y-19831341D01*
X7690794Y-19839210D01*
X7721286Y-19850120D01*
X7750561Y-19863966D01*
X7778338Y-19880615D01*
X7804350Y-19899907D01*
X7828345Y-19921655D01*
X7850093Y-19945650D01*
X7869385Y-19971662D01*
X7886034Y-19999439D01*
X7899880Y-20028714D01*
X7910790Y-20059206D01*
X7918659Y-20090620D01*
X7923411Y-20122654D01*
X7925000Y-20155000D01*
X7925000Y-21645000D01*
X7923411Y-21677346D01*
X7918659Y-21709380D01*
X7910790Y-21740794D01*
X7899880Y-21771286D01*
X7886034Y-21800561D01*
X7869385Y-21828338D01*
X7850093Y-21854350D01*
X7828345Y-21878345D01*
X7804350Y-21900093D01*
X7778338Y-21919385D01*
X7750561Y-21936034D01*
X7721286Y-21949880D01*
X7690794Y-21960790D01*
X7659380Y-21968659D01*
X7627346Y-21973411D01*
X7595000Y-21975000D01*
X6605000Y-21975000D01*
X6572654Y-21973411D01*
X6540620Y-21968659D01*
X6509206Y-21960790D01*
X6478714Y-21949880D01*
X6449439Y-21936034D01*
X6421662Y-21919385D01*
X6395650Y-21900093D01*
X6371655Y-21878345D01*
X6349907Y-21854350D01*
X6330615Y-21828338D01*
X6313966Y-21800561D01*
X6300120Y-21771286D01*
X6289210Y-21740794D01*
X6281341Y-21709380D01*
X6276589Y-21677346D01*
X6275000Y-21645000D01*
X6275000Y-20155000D01*
X6276589Y-20122654D01*
X6281341Y-20090620D01*
X6289210Y-20059206D01*
X6300120Y-20028714D01*
X6313966Y-19999439D01*
X6330615Y-19971662D01*
X6349907Y-19945650D01*
X6371655Y-19921655D01*
X6395650Y-19899907D01*
X6421662Y-19880615D01*
X6449439Y-19863966D01*
X6478714Y-19850120D01*
X6509206Y-19839210D01*
X6540620Y-19831341D01*
X6572654Y-19826589D01*
X6605000Y-19825000D01*
X7595000Y-19825000D01*
X7627346Y-19826589D01*
X7627346Y-19826589D01*
G37*
D11*
X7100000Y-20900000D03*
D10*
G36*
X10427346Y-19826589D02*
G01*
X10459380Y-19831341D01*
X10490794Y-19839210D01*
X10521286Y-19850120D01*
X10550561Y-19863966D01*
X10578338Y-19880615D01*
X10604350Y-19899907D01*
X10628345Y-19921655D01*
X10650093Y-19945650D01*
X10669385Y-19971662D01*
X10686034Y-19999439D01*
X10699880Y-20028714D01*
X10710790Y-20059206D01*
X10718659Y-20090620D01*
X10723411Y-20122654D01*
X10725000Y-20155000D01*
X10725000Y-21645000D01*
X10723411Y-21677346D01*
X10718659Y-21709380D01*
X10710790Y-21740794D01*
X10699880Y-21771286D01*
X10686034Y-21800561D01*
X10669385Y-21828338D01*
X10650093Y-21854350D01*
X10628345Y-21878345D01*
X10604350Y-21900093D01*
X10578338Y-21919385D01*
X10550561Y-21936034D01*
X10521286Y-21949880D01*
X10490794Y-21960790D01*
X10459380Y-21968659D01*
X10427346Y-21973411D01*
X10395000Y-21975000D01*
X9405000Y-21975000D01*
X9372654Y-21973411D01*
X9340620Y-21968659D01*
X9309206Y-21960790D01*
X9278714Y-21949880D01*
X9249439Y-21936034D01*
X9221662Y-21919385D01*
X9195650Y-21900093D01*
X9171655Y-21878345D01*
X9149907Y-21854350D01*
X9130615Y-21828338D01*
X9113966Y-21800561D01*
X9100120Y-21771286D01*
X9089210Y-21740794D01*
X9081341Y-21709380D01*
X9076589Y-21677346D01*
X9075000Y-21645000D01*
X9075000Y-20155000D01*
X9076589Y-20122654D01*
X9081341Y-20090620D01*
X9089210Y-20059206D01*
X9100120Y-20028714D01*
X9113966Y-19999439D01*
X9130615Y-19971662D01*
X9149907Y-19945650D01*
X9171655Y-19921655D01*
X9195650Y-19899907D01*
X9221662Y-19880615D01*
X9249439Y-19863966D01*
X9278714Y-19850120D01*
X9309206Y-19839210D01*
X9340620Y-19831341D01*
X9372654Y-19826589D01*
X9405000Y-19825000D01*
X10395000Y-19825000D01*
X10427346Y-19826589D01*
X10427346Y-19826589D01*
G37*
D11*
X9900000Y-20900000D03*
D10*
G36*
X7627346Y-17326589D02*
G01*
X7659380Y-17331341D01*
X7690794Y-17339210D01*
X7721286Y-17350120D01*
X7750561Y-17363966D01*
X7778338Y-17380615D01*
X7804350Y-17399907D01*
X7828345Y-17421655D01*
X7850093Y-17445650D01*
X7869385Y-17471662D01*
X7886034Y-17499439D01*
X7899880Y-17528714D01*
X7910790Y-17559206D01*
X7918659Y-17590620D01*
X7923411Y-17622654D01*
X7925000Y-17655000D01*
X7925000Y-19145000D01*
X7923411Y-19177346D01*
X7918659Y-19209380D01*
X7910790Y-19240794D01*
X7899880Y-19271286D01*
X7886034Y-19300561D01*
X7869385Y-19328338D01*
X7850093Y-19354350D01*
X7828345Y-19378345D01*
X7804350Y-19400093D01*
X7778338Y-19419385D01*
X7750561Y-19436034D01*
X7721286Y-19449880D01*
X7690794Y-19460790D01*
X7659380Y-19468659D01*
X7627346Y-19473411D01*
X7595000Y-19475000D01*
X6605000Y-19475000D01*
X6572654Y-19473411D01*
X6540620Y-19468659D01*
X6509206Y-19460790D01*
X6478714Y-19449880D01*
X6449439Y-19436034D01*
X6421662Y-19419385D01*
X6395650Y-19400093D01*
X6371655Y-19378345D01*
X6349907Y-19354350D01*
X6330615Y-19328338D01*
X6313966Y-19300561D01*
X6300120Y-19271286D01*
X6289210Y-19240794D01*
X6281341Y-19209380D01*
X6276589Y-19177346D01*
X6275000Y-19145000D01*
X6275000Y-17655000D01*
X6276589Y-17622654D01*
X6281341Y-17590620D01*
X6289210Y-17559206D01*
X6300120Y-17528714D01*
X6313966Y-17499439D01*
X6330615Y-17471662D01*
X6349907Y-17445650D01*
X6371655Y-17421655D01*
X6395650Y-17399907D01*
X6421662Y-17380615D01*
X6449439Y-17363966D01*
X6478714Y-17350120D01*
X6509206Y-17339210D01*
X6540620Y-17331341D01*
X6572654Y-17326589D01*
X6605000Y-17325000D01*
X7595000Y-17325000D01*
X7627346Y-17326589D01*
X7627346Y-17326589D01*
G37*
D11*
X7100000Y-18400000D03*
D10*
G36*
X10427346Y-17326589D02*
G01*
X10459380Y-17331341D01*
X10490794Y-17339210D01*
X10521286Y-17350120D01*
X10550561Y-17363966D01*
X10578338Y-17380615D01*
X10604350Y-17399907D01*
X10628345Y-17421655D01*
X10650093Y-17445650D01*
X10669385Y-17471662D01*
X10686034Y-17499439D01*
X10699880Y-17528714D01*
X10710790Y-17559206D01*
X10718659Y-17590620D01*
X10723411Y-17622654D01*
X10725000Y-17655000D01*
X10725000Y-19145000D01*
X10723411Y-19177346D01*
X10718659Y-19209380D01*
X10710790Y-19240794D01*
X10699880Y-19271286D01*
X10686034Y-19300561D01*
X10669385Y-19328338D01*
X10650093Y-19354350D01*
X10628345Y-19378345D01*
X10604350Y-19400093D01*
X10578338Y-19419385D01*
X10550561Y-19436034D01*
X10521286Y-19449880D01*
X10490794Y-19460790D01*
X10459380Y-19468659D01*
X10427346Y-19473411D01*
X10395000Y-19475000D01*
X9405000Y-19475000D01*
X9372654Y-19473411D01*
X9340620Y-19468659D01*
X9309206Y-19460790D01*
X9278714Y-19449880D01*
X9249439Y-19436034D01*
X9221662Y-19419385D01*
X9195650Y-19400093D01*
X9171655Y-19378345D01*
X9149907Y-19354350D01*
X9130615Y-19328338D01*
X9113966Y-19300561D01*
X9100120Y-19271286D01*
X9089210Y-19240794D01*
X9081341Y-19209380D01*
X9076589Y-19177346D01*
X9075000Y-19145000D01*
X9075000Y-17655000D01*
X9076589Y-17622654D01*
X9081341Y-17590620D01*
X9089210Y-17559206D01*
X9100120Y-17528714D01*
X9113966Y-17499439D01*
X9130615Y-17471662D01*
X9149907Y-17445650D01*
X9171655Y-17421655D01*
X9195650Y-17399907D01*
X9221662Y-17380615D01*
X9249439Y-17363966D01*
X9278714Y-17350120D01*
X9309206Y-17339210D01*
X9340620Y-17331341D01*
X9372654Y-17326589D01*
X9405000Y-17325000D01*
X10395000Y-17325000D01*
X10427346Y-17326589D01*
X10427346Y-17326589D01*
G37*
D11*
X9900000Y-18400000D03*
D10*
G36*
X7627346Y-22426589D02*
G01*
X7659380Y-22431341D01*
X7690794Y-22439210D01*
X7721286Y-22450120D01*
X7750561Y-22463966D01*
X7778338Y-22480615D01*
X7804350Y-22499907D01*
X7828345Y-22521655D01*
X7850093Y-22545650D01*
X7869385Y-22571662D01*
X7886034Y-22599439D01*
X7899880Y-22628714D01*
X7910790Y-22659206D01*
X7918659Y-22690620D01*
X7923411Y-22722654D01*
X7925000Y-22755000D01*
X7925000Y-24245000D01*
X7923411Y-24277346D01*
X7918659Y-24309380D01*
X7910790Y-24340794D01*
X7899880Y-24371286D01*
X7886034Y-24400561D01*
X7869385Y-24428338D01*
X7850093Y-24454350D01*
X7828345Y-24478345D01*
X7804350Y-24500093D01*
X7778338Y-24519385D01*
X7750561Y-24536034D01*
X7721286Y-24549880D01*
X7690794Y-24560790D01*
X7659380Y-24568659D01*
X7627346Y-24573411D01*
X7595000Y-24575000D01*
X6605000Y-24575000D01*
X6572654Y-24573411D01*
X6540620Y-24568659D01*
X6509206Y-24560790D01*
X6478714Y-24549880D01*
X6449439Y-24536034D01*
X6421662Y-24519385D01*
X6395650Y-24500093D01*
X6371655Y-24478345D01*
X6349907Y-24454350D01*
X6330615Y-24428338D01*
X6313966Y-24400561D01*
X6300120Y-24371286D01*
X6289210Y-24340794D01*
X6281341Y-24309380D01*
X6276589Y-24277346D01*
X6275000Y-24245000D01*
X6275000Y-22755000D01*
X6276589Y-22722654D01*
X6281341Y-22690620D01*
X6289210Y-22659206D01*
X6300120Y-22628714D01*
X6313966Y-22599439D01*
X6330615Y-22571662D01*
X6349907Y-22545650D01*
X6371655Y-22521655D01*
X6395650Y-22499907D01*
X6421662Y-22480615D01*
X6449439Y-22463966D01*
X6478714Y-22450120D01*
X6509206Y-22439210D01*
X6540620Y-22431341D01*
X6572654Y-22426589D01*
X6605000Y-22425000D01*
X7595000Y-22425000D01*
X7627346Y-22426589D01*
X7627346Y-22426589D01*
G37*
D11*
X7100000Y-23500000D03*
D10*
G36*
X10427346Y-22426589D02*
G01*
X10459380Y-22431341D01*
X10490794Y-22439210D01*
X10521286Y-22450120D01*
X10550561Y-22463966D01*
X10578338Y-22480615D01*
X10604350Y-22499907D01*
X10628345Y-22521655D01*
X10650093Y-22545650D01*
X10669385Y-22571662D01*
X10686034Y-22599439D01*
X10699880Y-22628714D01*
X10710790Y-22659206D01*
X10718659Y-22690620D01*
X10723411Y-22722654D01*
X10725000Y-22755000D01*
X10725000Y-24245000D01*
X10723411Y-24277346D01*
X10718659Y-24309380D01*
X10710790Y-24340794D01*
X10699880Y-24371286D01*
X10686034Y-24400561D01*
X10669385Y-24428338D01*
X10650093Y-24454350D01*
X10628345Y-24478345D01*
X10604350Y-24500093D01*
X10578338Y-24519385D01*
X10550561Y-24536034D01*
X10521286Y-24549880D01*
X10490794Y-24560790D01*
X10459380Y-24568659D01*
X10427346Y-24573411D01*
X10395000Y-24575000D01*
X9405000Y-24575000D01*
X9372654Y-24573411D01*
X9340620Y-24568659D01*
X9309206Y-24560790D01*
X9278714Y-24549880D01*
X9249439Y-24536034D01*
X9221662Y-24519385D01*
X9195650Y-24500093D01*
X9171655Y-24478345D01*
X9149907Y-24454350D01*
X9130615Y-24428338D01*
X9113966Y-24400561D01*
X9100120Y-24371286D01*
X9089210Y-24340794D01*
X9081341Y-24309380D01*
X9076589Y-24277346D01*
X9075000Y-24245000D01*
X9075000Y-22755000D01*
X9076589Y-22722654D01*
X9081341Y-22690620D01*
X9089210Y-22659206D01*
X9100120Y-22628714D01*
X9113966Y-22599439D01*
X9130615Y-22571662D01*
X9149907Y-22545650D01*
X9171655Y-22521655D01*
X9195650Y-22499907D01*
X9221662Y-22480615D01*
X9249439Y-22463966D01*
X9278714Y-22450120D01*
X9309206Y-22439210D01*
X9340620Y-22431341D01*
X9372654Y-22426589D01*
X9405000Y-22425000D01*
X10395000Y-22425000D01*
X10427346Y-22426589D01*
X10427346Y-22426589D01*
G37*
D11*
X9900000Y-23500000D03*
D14*
X30300000Y-22500000D03*
X30300000Y-27000000D03*
X23800000Y-22500000D03*
X23800000Y-27000000D03*
D15*
X19000000Y-18000000D03*
X35000000Y-18000000D03*
D16*
X21900000Y-12000000D03*
D17*
X21900000Y-9460000D03*
X24440000Y-12000000D03*
X24440000Y-9460000D03*
X26980000Y-12000000D03*
X26980000Y-9460000D03*
X29520000Y-12000000D03*
X29520000Y-9460000D03*
X32060000Y-12000000D03*
X32060000Y-9460000D03*
M02*
