G04 #@! TF.GenerationSoftware,KiCad,Pcbnew,(5.1.4)-1*
G04 #@! TF.CreationDate,2020-05-20T00:47:24+02:00*
G04 #@! TF.ProjectId,project_gtag,70726f6a-6563-4745-9f67-7461672e6b69,V3.1*
G04 #@! TF.SameCoordinates,PX7735940PY44aa200*
G04 #@! TF.FileFunction,Copper,L1,Top*
G04 #@! TF.FilePolarity,Positive*
%FSLAX46Y46*%
G04 Gerber Fmt 4.6, Leading zero omitted, Abs format (unit mm)*
G04 Created by KiCad (PCBNEW (5.1.4)-1) date 2020-05-20 00:47:24*
%MOMM*%
%LPD*%
G04 APERTURE LIST*
%ADD10C,0.100000*%
%ADD11C,1.250000*%
%ADD12R,1.700000X1.700000*%
%ADD13O,1.700000X1.700000*%
%ADD14C,2.000000*%
%ADD15C,2.800000*%
%ADD16R,1.727200X1.727200*%
%ADD17O,1.727200X1.727200*%
%ADD18C,0.300000*%
%ADD19C,0.500000*%
%ADD20C,0.254000*%
G04 APERTURE END LIST*
D10*
G36*
X23699504Y-17126204D02*
G01*
X23723773Y-17129804D01*
X23747571Y-17135765D01*
X23770671Y-17144030D01*
X23792849Y-17154520D01*
X23813893Y-17167133D01*
X23833598Y-17181747D01*
X23851777Y-17198223D01*
X23868253Y-17216402D01*
X23882867Y-17236107D01*
X23895480Y-17257151D01*
X23905970Y-17279329D01*
X23914235Y-17302429D01*
X23920196Y-17326227D01*
X23923796Y-17350496D01*
X23925000Y-17375000D01*
X23925000Y-18625000D01*
X23923796Y-18649504D01*
X23920196Y-18673773D01*
X23914235Y-18697571D01*
X23905970Y-18720671D01*
X23895480Y-18742849D01*
X23882867Y-18763893D01*
X23868253Y-18783598D01*
X23851777Y-18801777D01*
X23833598Y-18818253D01*
X23813893Y-18832867D01*
X23792849Y-18845480D01*
X23770671Y-18855970D01*
X23747571Y-18864235D01*
X23723773Y-18870196D01*
X23699504Y-18873796D01*
X23675000Y-18875000D01*
X22925000Y-18875000D01*
X22900496Y-18873796D01*
X22876227Y-18870196D01*
X22852429Y-18864235D01*
X22829329Y-18855970D01*
X22807151Y-18845480D01*
X22786107Y-18832867D01*
X22766402Y-18818253D01*
X22748223Y-18801777D01*
X22731747Y-18783598D01*
X22717133Y-18763893D01*
X22704520Y-18742849D01*
X22694030Y-18720671D01*
X22685765Y-18697571D01*
X22679804Y-18673773D01*
X22676204Y-18649504D01*
X22675000Y-18625000D01*
X22675000Y-17375000D01*
X22676204Y-17350496D01*
X22679804Y-17326227D01*
X22685765Y-17302429D01*
X22694030Y-17279329D01*
X22704520Y-17257151D01*
X22717133Y-17236107D01*
X22731747Y-17216402D01*
X22748223Y-17198223D01*
X22766402Y-17181747D01*
X22786107Y-17167133D01*
X22807151Y-17154520D01*
X22829329Y-17144030D01*
X22852429Y-17135765D01*
X22876227Y-17129804D01*
X22900496Y-17126204D01*
X22925000Y-17125000D01*
X23675000Y-17125000D01*
X23699504Y-17126204D01*
X23699504Y-17126204D01*
G37*
D11*
X23300000Y-18000000D03*
D10*
G36*
X26499504Y-17126204D02*
G01*
X26523773Y-17129804D01*
X26547571Y-17135765D01*
X26570671Y-17144030D01*
X26592849Y-17154520D01*
X26613893Y-17167133D01*
X26633598Y-17181747D01*
X26651777Y-17198223D01*
X26668253Y-17216402D01*
X26682867Y-17236107D01*
X26695480Y-17257151D01*
X26705970Y-17279329D01*
X26714235Y-17302429D01*
X26720196Y-17326227D01*
X26723796Y-17350496D01*
X26725000Y-17375000D01*
X26725000Y-18625000D01*
X26723796Y-18649504D01*
X26720196Y-18673773D01*
X26714235Y-18697571D01*
X26705970Y-18720671D01*
X26695480Y-18742849D01*
X26682867Y-18763893D01*
X26668253Y-18783598D01*
X26651777Y-18801777D01*
X26633598Y-18818253D01*
X26613893Y-18832867D01*
X26592849Y-18845480D01*
X26570671Y-18855970D01*
X26547571Y-18864235D01*
X26523773Y-18870196D01*
X26499504Y-18873796D01*
X26475000Y-18875000D01*
X25725000Y-18875000D01*
X25700496Y-18873796D01*
X25676227Y-18870196D01*
X25652429Y-18864235D01*
X25629329Y-18855970D01*
X25607151Y-18845480D01*
X25586107Y-18832867D01*
X25566402Y-18818253D01*
X25548223Y-18801777D01*
X25531747Y-18783598D01*
X25517133Y-18763893D01*
X25504520Y-18742849D01*
X25494030Y-18720671D01*
X25485765Y-18697571D01*
X25479804Y-18673773D01*
X25476204Y-18649504D01*
X25475000Y-18625000D01*
X25475000Y-17375000D01*
X25476204Y-17350496D01*
X25479804Y-17326227D01*
X25485765Y-17302429D01*
X25494030Y-17279329D01*
X25504520Y-17257151D01*
X25517133Y-17236107D01*
X25531747Y-17216402D01*
X25548223Y-17198223D01*
X25566402Y-17181747D01*
X25586107Y-17167133D01*
X25607151Y-17154520D01*
X25629329Y-17144030D01*
X25652429Y-17135765D01*
X25676227Y-17129804D01*
X25700496Y-17126204D01*
X25725000Y-17125000D01*
X26475000Y-17125000D01*
X26499504Y-17126204D01*
X26499504Y-17126204D01*
G37*
D11*
X26100000Y-18000000D03*
D12*
X49900000Y-17000000D03*
D13*
X49900000Y-19540000D03*
X49900000Y-22080000D03*
X49900000Y-24620000D03*
X49900000Y-27160000D03*
D12*
X4100000Y-26000000D03*
D13*
X4100000Y-23460000D03*
X4100000Y-20920000D03*
X4100000Y-18380000D03*
D10*
G36*
X31199504Y-17126204D02*
G01*
X31223773Y-17129804D01*
X31247571Y-17135765D01*
X31270671Y-17144030D01*
X31292849Y-17154520D01*
X31313893Y-17167133D01*
X31333598Y-17181747D01*
X31351777Y-17198223D01*
X31368253Y-17216402D01*
X31382867Y-17236107D01*
X31395480Y-17257151D01*
X31405970Y-17279329D01*
X31414235Y-17302429D01*
X31420196Y-17326227D01*
X31423796Y-17350496D01*
X31425000Y-17375000D01*
X31425000Y-18625000D01*
X31423796Y-18649504D01*
X31420196Y-18673773D01*
X31414235Y-18697571D01*
X31405970Y-18720671D01*
X31395480Y-18742849D01*
X31382867Y-18763893D01*
X31368253Y-18783598D01*
X31351777Y-18801777D01*
X31333598Y-18818253D01*
X31313893Y-18832867D01*
X31292849Y-18845480D01*
X31270671Y-18855970D01*
X31247571Y-18864235D01*
X31223773Y-18870196D01*
X31199504Y-18873796D01*
X31175000Y-18875000D01*
X30425000Y-18875000D01*
X30400496Y-18873796D01*
X30376227Y-18870196D01*
X30352429Y-18864235D01*
X30329329Y-18855970D01*
X30307151Y-18845480D01*
X30286107Y-18832867D01*
X30266402Y-18818253D01*
X30248223Y-18801777D01*
X30231747Y-18783598D01*
X30217133Y-18763893D01*
X30204520Y-18742849D01*
X30194030Y-18720671D01*
X30185765Y-18697571D01*
X30179804Y-18673773D01*
X30176204Y-18649504D01*
X30175000Y-18625000D01*
X30175000Y-17375000D01*
X30176204Y-17350496D01*
X30179804Y-17326227D01*
X30185765Y-17302429D01*
X30194030Y-17279329D01*
X30204520Y-17257151D01*
X30217133Y-17236107D01*
X30231747Y-17216402D01*
X30248223Y-17198223D01*
X30266402Y-17181747D01*
X30286107Y-17167133D01*
X30307151Y-17154520D01*
X30329329Y-17144030D01*
X30352429Y-17135765D01*
X30376227Y-17129804D01*
X30400496Y-17126204D01*
X30425000Y-17125000D01*
X31175000Y-17125000D01*
X31199504Y-17126204D01*
X31199504Y-17126204D01*
G37*
D11*
X30800000Y-18000000D03*
D10*
G36*
X28399504Y-17126204D02*
G01*
X28423773Y-17129804D01*
X28447571Y-17135765D01*
X28470671Y-17144030D01*
X28492849Y-17154520D01*
X28513893Y-17167133D01*
X28533598Y-17181747D01*
X28551777Y-17198223D01*
X28568253Y-17216402D01*
X28582867Y-17236107D01*
X28595480Y-17257151D01*
X28605970Y-17279329D01*
X28614235Y-17302429D01*
X28620196Y-17326227D01*
X28623796Y-17350496D01*
X28625000Y-17375000D01*
X28625000Y-18625000D01*
X28623796Y-18649504D01*
X28620196Y-18673773D01*
X28614235Y-18697571D01*
X28605970Y-18720671D01*
X28595480Y-18742849D01*
X28582867Y-18763893D01*
X28568253Y-18783598D01*
X28551777Y-18801777D01*
X28533598Y-18818253D01*
X28513893Y-18832867D01*
X28492849Y-18845480D01*
X28470671Y-18855970D01*
X28447571Y-18864235D01*
X28423773Y-18870196D01*
X28399504Y-18873796D01*
X28375000Y-18875000D01*
X27625000Y-18875000D01*
X27600496Y-18873796D01*
X27576227Y-18870196D01*
X27552429Y-18864235D01*
X27529329Y-18855970D01*
X27507151Y-18845480D01*
X27486107Y-18832867D01*
X27466402Y-18818253D01*
X27448223Y-18801777D01*
X27431747Y-18783598D01*
X27417133Y-18763893D01*
X27404520Y-18742849D01*
X27394030Y-18720671D01*
X27385765Y-18697571D01*
X27379804Y-18673773D01*
X27376204Y-18649504D01*
X27375000Y-18625000D01*
X27375000Y-17375000D01*
X27376204Y-17350496D01*
X27379804Y-17326227D01*
X27385765Y-17302429D01*
X27394030Y-17279329D01*
X27404520Y-17257151D01*
X27417133Y-17236107D01*
X27431747Y-17216402D01*
X27448223Y-17198223D01*
X27466402Y-17181747D01*
X27486107Y-17167133D01*
X27507151Y-17154520D01*
X27529329Y-17144030D01*
X27552429Y-17135765D01*
X27576227Y-17129804D01*
X27600496Y-17126204D01*
X27625000Y-17125000D01*
X28375000Y-17125000D01*
X28399504Y-17126204D01*
X28399504Y-17126204D01*
G37*
D11*
X28000000Y-18000000D03*
D14*
X30300000Y-22500000D03*
X30300000Y-27000000D03*
X23800000Y-22500000D03*
X23800000Y-27000000D03*
D15*
X19000000Y-18000000D03*
X35000000Y-18000000D03*
D16*
X21900000Y-12000000D03*
D17*
X21900000Y-9460000D03*
X24440000Y-12000000D03*
X24440000Y-9460000D03*
X26980000Y-12000000D03*
X26980000Y-9460000D03*
X29520000Y-12000000D03*
X29520000Y-9460000D03*
X32060000Y-12000000D03*
X32060000Y-9460000D03*
D18*
X26100000Y-18000000D02*
X28000000Y-18000000D01*
X25688700Y-10751300D02*
X24440000Y-12000000D01*
X32060000Y-12000000D02*
X30811300Y-10751300D01*
X30811300Y-10751300D02*
X25688700Y-10751300D01*
D19*
X32060000Y-9460000D02*
X33640000Y-11040000D01*
X33640000Y-11040000D02*
X33640000Y-16640000D01*
X33640000Y-16640000D02*
X35000000Y-18000000D01*
X35000000Y-18000000D02*
X30800000Y-18000000D01*
D18*
X32420000Y-24620000D02*
X30300000Y-22500000D01*
X49900000Y-24620000D02*
X32420000Y-24620000D01*
X30300000Y-22500000D02*
X23800000Y-22500000D01*
X14427524Y-18380000D02*
X4100000Y-18380000D01*
X18139874Y-14667650D02*
X14427524Y-18380000D01*
X21505450Y-14667650D02*
X18139874Y-14667650D01*
X23201100Y-12972000D02*
X21505450Y-14667650D01*
X23201100Y-10698900D02*
X23201100Y-12972000D01*
X24440000Y-9460000D02*
X23201100Y-10698900D01*
X28222000Y-8218000D02*
X26980000Y-9460000D01*
X32657100Y-8218000D02*
X28222000Y-8218000D01*
X49900000Y-22080000D02*
X51158600Y-20821400D01*
X51158600Y-20821400D02*
X51158600Y-19065700D01*
X51158600Y-19065700D02*
X50318300Y-18225400D01*
X50318300Y-18225400D02*
X38885400Y-18225400D01*
X34265011Y-9825911D02*
X32657100Y-8218000D01*
X38885400Y-18225400D02*
X34265011Y-13605011D01*
X34265011Y-13605011D02*
X34265011Y-9825911D01*
X12630000Y-20920000D02*
X4100000Y-20920000D01*
X18287350Y-15262650D02*
X12630000Y-20920000D01*
X26257350Y-15262650D02*
X18287350Y-15262650D01*
X27810000Y-13710000D02*
X26257350Y-15262650D01*
X29350500Y-15250500D02*
X27810000Y-13710000D01*
X29350500Y-18850500D02*
X29350500Y-15250500D01*
X30284600Y-19784600D02*
X29350500Y-18850500D01*
X48430100Y-19784600D02*
X30284600Y-19784600D01*
X48674700Y-19540000D02*
X48430100Y-19784600D01*
X27810000Y-13710000D02*
X29520000Y-12000000D01*
X49900000Y-19540000D02*
X48674700Y-19540000D01*
D20*
G36*
X36790000Y-1034876D02*
G01*
X36790001Y-1034886D01*
X36790000Y-13965123D01*
X36786565Y-14000000D01*
X36800273Y-14139184D01*
X36840872Y-14273020D01*
X36906800Y-14396363D01*
X36995525Y-14504475D01*
X37031375Y-14533896D01*
X37103637Y-14593200D01*
X37226980Y-14659128D01*
X37360816Y-14699727D01*
X37500000Y-14713435D01*
X37534877Y-14710000D01*
X52705909Y-14710000D01*
X53290000Y-15294091D01*
X53290001Y-29290000D01*
X1294091Y-29290000D01*
X710000Y-28705909D01*
X710000Y-28135413D01*
X22844192Y-28135413D01*
X22939956Y-28399814D01*
X23229571Y-28540704D01*
X23541108Y-28622384D01*
X23862595Y-28641718D01*
X24181675Y-28597961D01*
X24486088Y-28492795D01*
X24660044Y-28399814D01*
X24755808Y-28135413D01*
X29344192Y-28135413D01*
X29439956Y-28399814D01*
X29729571Y-28540704D01*
X30041108Y-28622384D01*
X30362595Y-28641718D01*
X30681675Y-28597961D01*
X30986088Y-28492795D01*
X31160044Y-28399814D01*
X31255808Y-28135413D01*
X30300000Y-27179605D01*
X29344192Y-28135413D01*
X24755808Y-28135413D01*
X23800000Y-27179605D01*
X22844192Y-28135413D01*
X710000Y-28135413D01*
X710000Y-26850000D01*
X2611928Y-26850000D01*
X2624188Y-26974482D01*
X2660498Y-27094180D01*
X2719463Y-27204494D01*
X2798815Y-27301185D01*
X2895506Y-27380537D01*
X3005820Y-27439502D01*
X3125518Y-27475812D01*
X3250000Y-27488072D01*
X3814250Y-27485000D01*
X3973000Y-27326250D01*
X3973000Y-26127000D01*
X4227000Y-26127000D01*
X4227000Y-27326250D01*
X4385750Y-27485000D01*
X4950000Y-27488072D01*
X5074482Y-27475812D01*
X5194180Y-27439502D01*
X5304494Y-27380537D01*
X5401185Y-27301185D01*
X5480537Y-27204494D01*
X5539502Y-27094180D01*
X5549083Y-27062595D01*
X22158282Y-27062595D01*
X22202039Y-27381675D01*
X22307205Y-27686088D01*
X22400186Y-27860044D01*
X22664587Y-27955808D01*
X23620395Y-27000000D01*
X23979605Y-27000000D01*
X24935413Y-27955808D01*
X25199814Y-27860044D01*
X25340704Y-27570429D01*
X25422384Y-27258892D01*
X25434189Y-27062595D01*
X28658282Y-27062595D01*
X28702039Y-27381675D01*
X28807205Y-27686088D01*
X28900186Y-27860044D01*
X29164587Y-27955808D01*
X30120395Y-27000000D01*
X30479605Y-27000000D01*
X31435413Y-27955808D01*
X31699814Y-27860044D01*
X31840704Y-27570429D01*
X31922384Y-27258892D01*
X31941718Y-26937405D01*
X31897961Y-26618325D01*
X31792795Y-26313912D01*
X31699814Y-26139956D01*
X31435413Y-26044192D01*
X30479605Y-27000000D01*
X30120395Y-27000000D01*
X29164587Y-26044192D01*
X28900186Y-26139956D01*
X28759296Y-26429571D01*
X28677616Y-26741108D01*
X28658282Y-27062595D01*
X25434189Y-27062595D01*
X25441718Y-26937405D01*
X25397961Y-26618325D01*
X25292795Y-26313912D01*
X25199814Y-26139956D01*
X24935413Y-26044192D01*
X23979605Y-27000000D01*
X23620395Y-27000000D01*
X22664587Y-26044192D01*
X22400186Y-26139956D01*
X22259296Y-26429571D01*
X22177616Y-26741108D01*
X22158282Y-27062595D01*
X5549083Y-27062595D01*
X5575812Y-26974482D01*
X5588072Y-26850000D01*
X5585000Y-26285750D01*
X5426250Y-26127000D01*
X4227000Y-26127000D01*
X3973000Y-26127000D01*
X2773750Y-26127000D01*
X2615000Y-26285750D01*
X2611928Y-26850000D01*
X710000Y-26850000D01*
X710000Y-18380000D01*
X2607815Y-18380000D01*
X2636487Y-18671111D01*
X2721401Y-18951034D01*
X2859294Y-19209014D01*
X3044866Y-19435134D01*
X3270986Y-19620706D01*
X3325791Y-19650000D01*
X3270986Y-19679294D01*
X3044866Y-19864866D01*
X2859294Y-20090986D01*
X2721401Y-20348966D01*
X2636487Y-20628889D01*
X2607815Y-20920000D01*
X2636487Y-21211111D01*
X2721401Y-21491034D01*
X2859294Y-21749014D01*
X3044866Y-21975134D01*
X3270986Y-22160706D01*
X3325791Y-22190000D01*
X3270986Y-22219294D01*
X3044866Y-22404866D01*
X2859294Y-22630986D01*
X2721401Y-22888966D01*
X2636487Y-23168889D01*
X2607815Y-23460000D01*
X2636487Y-23751111D01*
X2721401Y-24031034D01*
X2859294Y-24289014D01*
X3044866Y-24515134D01*
X3074687Y-24539607D01*
X3005820Y-24560498D01*
X2895506Y-24619463D01*
X2798815Y-24698815D01*
X2719463Y-24795506D01*
X2660498Y-24905820D01*
X2624188Y-25025518D01*
X2611928Y-25150000D01*
X2615000Y-25714250D01*
X2773750Y-25873000D01*
X3973000Y-25873000D01*
X3973000Y-25853000D01*
X4227000Y-25853000D01*
X4227000Y-25873000D01*
X5426250Y-25873000D01*
X5434663Y-25864587D01*
X22844192Y-25864587D01*
X23800000Y-26820395D01*
X24755808Y-25864587D01*
X29344192Y-25864587D01*
X30300000Y-26820395D01*
X31255808Y-25864587D01*
X31160044Y-25600186D01*
X30870429Y-25459296D01*
X30558892Y-25377616D01*
X30237405Y-25358282D01*
X29918325Y-25402039D01*
X29613912Y-25507205D01*
X29439956Y-25600186D01*
X29344192Y-25864587D01*
X24755808Y-25864587D01*
X24660044Y-25600186D01*
X24370429Y-25459296D01*
X24058892Y-25377616D01*
X23737405Y-25358282D01*
X23418325Y-25402039D01*
X23113912Y-25507205D01*
X22939956Y-25600186D01*
X22844192Y-25864587D01*
X5434663Y-25864587D01*
X5585000Y-25714250D01*
X5588072Y-25150000D01*
X5575812Y-25025518D01*
X5539502Y-24905820D01*
X5480537Y-24795506D01*
X5401185Y-24698815D01*
X5304494Y-24619463D01*
X5194180Y-24560498D01*
X5125313Y-24539607D01*
X5155134Y-24515134D01*
X5340706Y-24289014D01*
X5478599Y-24031034D01*
X5563513Y-23751111D01*
X5592185Y-23460000D01*
X5563513Y-23168889D01*
X5478599Y-22888966D01*
X5340706Y-22630986D01*
X5155134Y-22404866D01*
X4929014Y-22219294D01*
X4874209Y-22190000D01*
X4929014Y-22160706D01*
X5155134Y-21975134D01*
X5340706Y-21749014D01*
X5364232Y-21705000D01*
X12591447Y-21705000D01*
X12630000Y-21708797D01*
X12668553Y-21705000D01*
X12668561Y-21705000D01*
X12783887Y-21693641D01*
X12931860Y-21648754D01*
X13068233Y-21575862D01*
X13187764Y-21477764D01*
X13212347Y-21447810D01*
X15239710Y-19420447D01*
X17759158Y-19420447D01*
X17903135Y-19725770D01*
X18260892Y-19906597D01*
X18647053Y-20014155D01*
X19046777Y-20044310D01*
X19444704Y-19995904D01*
X19825540Y-19870795D01*
X20096865Y-19725770D01*
X20240842Y-19420447D01*
X19000000Y-18179605D01*
X17759158Y-19420447D01*
X15239710Y-19420447D01*
X16983621Y-17676537D01*
X16955690Y-18046777D01*
X17004096Y-18444704D01*
X17129205Y-18825540D01*
X17274230Y-19096865D01*
X17579553Y-19240842D01*
X18820395Y-18000000D01*
X19179605Y-18000000D01*
X20420447Y-19240842D01*
X20725770Y-19096865D01*
X20837910Y-18875000D01*
X22036928Y-18875000D01*
X22049188Y-18999482D01*
X22085498Y-19119180D01*
X22144463Y-19229494D01*
X22223815Y-19326185D01*
X22320506Y-19405537D01*
X22430820Y-19464502D01*
X22550518Y-19500812D01*
X22675000Y-19513072D01*
X23014250Y-19510000D01*
X23173000Y-19351250D01*
X23173000Y-18127000D01*
X23427000Y-18127000D01*
X23427000Y-19351250D01*
X23585750Y-19510000D01*
X23925000Y-19513072D01*
X24049482Y-19500812D01*
X24169180Y-19464502D01*
X24279494Y-19405537D01*
X24376185Y-19326185D01*
X24455537Y-19229494D01*
X24514502Y-19119180D01*
X24550812Y-18999482D01*
X24563072Y-18875000D01*
X24560000Y-18285750D01*
X24401250Y-18127000D01*
X23427000Y-18127000D01*
X23173000Y-18127000D01*
X22198750Y-18127000D01*
X22040000Y-18285750D01*
X22036928Y-18875000D01*
X20837910Y-18875000D01*
X20906597Y-18739108D01*
X21014155Y-18352947D01*
X21044310Y-17953223D01*
X20995904Y-17555296D01*
X20870795Y-17174460D01*
X20844359Y-17125000D01*
X22036928Y-17125000D01*
X22040000Y-17714250D01*
X22198750Y-17873000D01*
X23173000Y-17873000D01*
X23173000Y-16648750D01*
X23427000Y-16648750D01*
X23427000Y-17873000D01*
X24401250Y-17873000D01*
X24560000Y-17714250D01*
X24563072Y-17125000D01*
X24550812Y-17000518D01*
X24514502Y-16880820D01*
X24455537Y-16770506D01*
X24376185Y-16673815D01*
X24279494Y-16594463D01*
X24169180Y-16535498D01*
X24049482Y-16499188D01*
X23925000Y-16486928D01*
X23585750Y-16490000D01*
X23427000Y-16648750D01*
X23173000Y-16648750D01*
X23014250Y-16490000D01*
X22675000Y-16486928D01*
X22550518Y-16499188D01*
X22430820Y-16535498D01*
X22320506Y-16594463D01*
X22223815Y-16673815D01*
X22144463Y-16770506D01*
X22085498Y-16880820D01*
X22049188Y-17000518D01*
X22036928Y-17125000D01*
X20844359Y-17125000D01*
X20725770Y-16903135D01*
X20420447Y-16759158D01*
X19179605Y-18000000D01*
X18820395Y-18000000D01*
X18806253Y-17985858D01*
X18985858Y-17806253D01*
X19000000Y-17820395D01*
X20240842Y-16579553D01*
X20096865Y-16274230D01*
X19739108Y-16093403D01*
X19574843Y-16047650D01*
X26218797Y-16047650D01*
X26257350Y-16051447D01*
X26295903Y-16047650D01*
X26295911Y-16047650D01*
X26411237Y-16036291D01*
X26559210Y-15991404D01*
X26695583Y-15918512D01*
X26815114Y-15820414D01*
X26839697Y-15790460D01*
X27810000Y-14820157D01*
X28565501Y-15575659D01*
X28565501Y-16509224D01*
X28548254Y-16503992D01*
X28375000Y-16486928D01*
X27625000Y-16486928D01*
X27451746Y-16503992D01*
X27285150Y-16554528D01*
X27131614Y-16636595D01*
X27050000Y-16703573D01*
X26968386Y-16636595D01*
X26814850Y-16554528D01*
X26648254Y-16503992D01*
X26475000Y-16486928D01*
X25725000Y-16486928D01*
X25551746Y-16503992D01*
X25385150Y-16554528D01*
X25231614Y-16636595D01*
X25097038Y-16747038D01*
X24986595Y-16881614D01*
X24904528Y-17035150D01*
X24853992Y-17201746D01*
X24836928Y-17375000D01*
X24836928Y-18625000D01*
X24853992Y-18798254D01*
X24904528Y-18964850D01*
X24986595Y-19118386D01*
X25097038Y-19252962D01*
X25231614Y-19363405D01*
X25385150Y-19445472D01*
X25551746Y-19496008D01*
X25725000Y-19513072D01*
X26475000Y-19513072D01*
X26648254Y-19496008D01*
X26814850Y-19445472D01*
X26968386Y-19363405D01*
X27050000Y-19296427D01*
X27131614Y-19363405D01*
X27285150Y-19445472D01*
X27451746Y-19496008D01*
X27625000Y-19513072D01*
X28375000Y-19513072D01*
X28548254Y-19496008D01*
X28714850Y-19445472D01*
X28790213Y-19405190D01*
X28792736Y-19408264D01*
X28822690Y-19432847D01*
X29702253Y-20312410D01*
X29726836Y-20342364D01*
X29846367Y-20440462D01*
X29982740Y-20513354D01*
X30130713Y-20558242D01*
X30205626Y-20565620D01*
X30246039Y-20569600D01*
X30246044Y-20569600D01*
X30284600Y-20573397D01*
X30323156Y-20569600D01*
X48391547Y-20569600D01*
X48430100Y-20573397D01*
X48468653Y-20569600D01*
X48468661Y-20569600D01*
X48583987Y-20558241D01*
X48731960Y-20513354D01*
X48763789Y-20496341D01*
X48844866Y-20595134D01*
X49070986Y-20780706D01*
X49125791Y-20810000D01*
X49070986Y-20839294D01*
X48844866Y-21024866D01*
X48659294Y-21250986D01*
X48521401Y-21508966D01*
X48436487Y-21788889D01*
X48407815Y-22080000D01*
X48436487Y-22371111D01*
X48521401Y-22651034D01*
X48659294Y-22909014D01*
X48844866Y-23135134D01*
X49070986Y-23320706D01*
X49125791Y-23350000D01*
X49070986Y-23379294D01*
X48844866Y-23564866D01*
X48659294Y-23790986D01*
X48635768Y-23835000D01*
X32745157Y-23835000D01*
X31874640Y-22964483D01*
X31935000Y-22661033D01*
X31935000Y-22338967D01*
X31872168Y-22023088D01*
X31748918Y-21725537D01*
X31569987Y-21457748D01*
X31342252Y-21230013D01*
X31074463Y-21051082D01*
X30776912Y-20927832D01*
X30461033Y-20865000D01*
X30138967Y-20865000D01*
X29823088Y-20927832D01*
X29525537Y-21051082D01*
X29257748Y-21230013D01*
X29030013Y-21457748D01*
X28858123Y-21715000D01*
X25241877Y-21715000D01*
X25069987Y-21457748D01*
X24842252Y-21230013D01*
X24574463Y-21051082D01*
X24276912Y-20927832D01*
X23961033Y-20865000D01*
X23638967Y-20865000D01*
X23323088Y-20927832D01*
X23025537Y-21051082D01*
X22757748Y-21230013D01*
X22530013Y-21457748D01*
X22351082Y-21725537D01*
X22227832Y-22023088D01*
X22165000Y-22338967D01*
X22165000Y-22661033D01*
X22227832Y-22976912D01*
X22351082Y-23274463D01*
X22530013Y-23542252D01*
X22757748Y-23769987D01*
X23025537Y-23948918D01*
X23323088Y-24072168D01*
X23638967Y-24135000D01*
X23961033Y-24135000D01*
X24276912Y-24072168D01*
X24574463Y-23948918D01*
X24842252Y-23769987D01*
X25069987Y-23542252D01*
X25241877Y-23285000D01*
X28858123Y-23285000D01*
X29030013Y-23542252D01*
X29257748Y-23769987D01*
X29525537Y-23948918D01*
X29823088Y-24072168D01*
X30138967Y-24135000D01*
X30461033Y-24135000D01*
X30764483Y-24074640D01*
X31837653Y-25147810D01*
X31862236Y-25177764D01*
X31981767Y-25275862D01*
X32118140Y-25348754D01*
X32266113Y-25393642D01*
X32341026Y-25401020D01*
X32381439Y-25405000D01*
X32381444Y-25405000D01*
X32420000Y-25408797D01*
X32458556Y-25405000D01*
X48635768Y-25405000D01*
X48659294Y-25449014D01*
X48844866Y-25675134D01*
X49070986Y-25860706D01*
X49125791Y-25890000D01*
X49070986Y-25919294D01*
X48844866Y-26104866D01*
X48659294Y-26330986D01*
X48521401Y-26588966D01*
X48436487Y-26868889D01*
X48407815Y-27160000D01*
X48436487Y-27451111D01*
X48521401Y-27731034D01*
X48659294Y-27989014D01*
X48844866Y-28215134D01*
X49070986Y-28400706D01*
X49328966Y-28538599D01*
X49608889Y-28623513D01*
X49827050Y-28645000D01*
X49972950Y-28645000D01*
X50191111Y-28623513D01*
X50471034Y-28538599D01*
X50729014Y-28400706D01*
X50955134Y-28215134D01*
X51140706Y-27989014D01*
X51278599Y-27731034D01*
X51363513Y-27451111D01*
X51392185Y-27160000D01*
X51363513Y-26868889D01*
X51278599Y-26588966D01*
X51140706Y-26330986D01*
X50955134Y-26104866D01*
X50729014Y-25919294D01*
X50674209Y-25890000D01*
X50729014Y-25860706D01*
X50955134Y-25675134D01*
X51140706Y-25449014D01*
X51278599Y-25191034D01*
X51363513Y-24911111D01*
X51392185Y-24620000D01*
X51363513Y-24328889D01*
X51278599Y-24048966D01*
X51140706Y-23790986D01*
X50955134Y-23564866D01*
X50729014Y-23379294D01*
X50674209Y-23350000D01*
X50729014Y-23320706D01*
X50955134Y-23135134D01*
X51140706Y-22909014D01*
X51278599Y-22651034D01*
X51363513Y-22371111D01*
X51392185Y-22080000D01*
X51363513Y-21788889D01*
X51349026Y-21741132D01*
X51686417Y-21403741D01*
X51716364Y-21379164D01*
X51814462Y-21259633D01*
X51887354Y-21123260D01*
X51902331Y-21073887D01*
X51932241Y-20975288D01*
X51937824Y-20918599D01*
X51943600Y-20859961D01*
X51943600Y-20859954D01*
X51947397Y-20821401D01*
X51943600Y-20782848D01*
X51943600Y-19104256D01*
X51947397Y-19065700D01*
X51943600Y-19027144D01*
X51943600Y-19027139D01*
X51939177Y-18982236D01*
X51932242Y-18911813D01*
X51887354Y-18763840D01*
X51880599Y-18751203D01*
X51814462Y-18627467D01*
X51716364Y-18507936D01*
X51686410Y-18483353D01*
X51324780Y-18121723D01*
X51339502Y-18094180D01*
X51375812Y-17974482D01*
X51388072Y-17850000D01*
X51385000Y-17285750D01*
X51226250Y-17127000D01*
X50027000Y-17127000D01*
X50027000Y-17147000D01*
X49773000Y-17147000D01*
X49773000Y-17127000D01*
X48573750Y-17127000D01*
X48415000Y-17285750D01*
X48414158Y-17440400D01*
X39210557Y-17440400D01*
X37920157Y-16150000D01*
X48411928Y-16150000D01*
X48415000Y-16714250D01*
X48573750Y-16873000D01*
X49773000Y-16873000D01*
X49773000Y-15673750D01*
X50027000Y-15673750D01*
X50027000Y-16873000D01*
X51226250Y-16873000D01*
X51385000Y-16714250D01*
X51388072Y-16150000D01*
X51375812Y-16025518D01*
X51339502Y-15905820D01*
X51280537Y-15795506D01*
X51201185Y-15698815D01*
X51104494Y-15619463D01*
X50994180Y-15560498D01*
X50874482Y-15524188D01*
X50750000Y-15511928D01*
X50185750Y-15515000D01*
X50027000Y-15673750D01*
X49773000Y-15673750D01*
X49614250Y-15515000D01*
X49050000Y-15511928D01*
X48925518Y-15524188D01*
X48805820Y-15560498D01*
X48695506Y-15619463D01*
X48598815Y-15698815D01*
X48519463Y-15795506D01*
X48460498Y-15905820D01*
X48424188Y-16025518D01*
X48411928Y-16150000D01*
X37920157Y-16150000D01*
X35050011Y-13279854D01*
X35050011Y-9864467D01*
X35053808Y-9825911D01*
X35050011Y-9787355D01*
X35050011Y-9787350D01*
X35046031Y-9746937D01*
X35038653Y-9672024D01*
X34993765Y-9524051D01*
X34920873Y-9387678D01*
X34822775Y-9268147D01*
X34792821Y-9243564D01*
X33239447Y-7690190D01*
X33214864Y-7660236D01*
X33095333Y-7562138D01*
X32958960Y-7489246D01*
X32810987Y-7444359D01*
X32695661Y-7433000D01*
X32695653Y-7433000D01*
X32657100Y-7429203D01*
X32618547Y-7433000D01*
X28260552Y-7433000D01*
X28221999Y-7429203D01*
X28183446Y-7433000D01*
X28183439Y-7433000D01*
X28082490Y-7442943D01*
X28068112Y-7444359D01*
X28033672Y-7454806D01*
X27920140Y-7489246D01*
X27783767Y-7562138D01*
X27723559Y-7611550D01*
X27694187Y-7635655D01*
X27694184Y-7635658D01*
X27664236Y-7660236D01*
X27639658Y-7690185D01*
X27329772Y-8000070D01*
X27273777Y-7983084D01*
X27053619Y-7961400D01*
X26906381Y-7961400D01*
X26686223Y-7983084D01*
X26403736Y-8068775D01*
X26143394Y-8207931D01*
X25915203Y-8395203D01*
X25727931Y-8623394D01*
X25710000Y-8656940D01*
X25692069Y-8623394D01*
X25504797Y-8395203D01*
X25276606Y-8207931D01*
X25016264Y-8068775D01*
X24733777Y-7983084D01*
X24513619Y-7961400D01*
X24366381Y-7961400D01*
X24146223Y-7983084D01*
X23863736Y-8068775D01*
X23603394Y-8207931D01*
X23375203Y-8395203D01*
X23187931Y-8623394D01*
X23164137Y-8667910D01*
X23106817Y-8571512D01*
X22910293Y-8353146D01*
X22674944Y-8177316D01*
X22409814Y-8050778D01*
X22259026Y-8005042D01*
X22027000Y-8126183D01*
X22027000Y-9333000D01*
X22047000Y-9333000D01*
X22047000Y-9587000D01*
X22027000Y-9587000D01*
X22027000Y-9607000D01*
X21773000Y-9607000D01*
X21773000Y-9587000D01*
X20565536Y-9587000D01*
X20445037Y-9819027D01*
X20543036Y-10095978D01*
X20693183Y-10348488D01*
X20854692Y-10527947D01*
X20792220Y-10546898D01*
X20681906Y-10605863D01*
X20585215Y-10685215D01*
X20505863Y-10781906D01*
X20446898Y-10892220D01*
X20410588Y-11011918D01*
X20398328Y-11136400D01*
X20398328Y-12863600D01*
X20410588Y-12988082D01*
X20446898Y-13107780D01*
X20505863Y-13218094D01*
X20585215Y-13314785D01*
X20681906Y-13394137D01*
X20792220Y-13453102D01*
X20911918Y-13489412D01*
X21036400Y-13501672D01*
X21561271Y-13501672D01*
X21180293Y-13882650D01*
X18178430Y-13882650D01*
X18139874Y-13878853D01*
X18101318Y-13882650D01*
X18101313Y-13882650D01*
X18060900Y-13886630D01*
X17985987Y-13894008D01*
X17838014Y-13938896D01*
X17701641Y-14011788D01*
X17582110Y-14109886D01*
X17557529Y-14139838D01*
X14102367Y-17595000D01*
X5364232Y-17595000D01*
X5340706Y-17550986D01*
X5155134Y-17324866D01*
X4929014Y-17139294D01*
X4671034Y-17001401D01*
X4391111Y-16916487D01*
X4172950Y-16895000D01*
X4027050Y-16895000D01*
X3808889Y-16916487D01*
X3528966Y-17001401D01*
X3270986Y-17139294D01*
X3044866Y-17324866D01*
X2859294Y-17550986D01*
X2721401Y-17808966D01*
X2636487Y-18088889D01*
X2607815Y-18380000D01*
X710000Y-18380000D01*
X710000Y-14710000D01*
X16465123Y-14710000D01*
X16500000Y-14713435D01*
X16534877Y-14710000D01*
X16639184Y-14699727D01*
X16773020Y-14659128D01*
X16896363Y-14593200D01*
X17004475Y-14504475D01*
X17093200Y-14396363D01*
X17159128Y-14273020D01*
X17199727Y-14139184D01*
X17213435Y-14000000D01*
X17210000Y-13965123D01*
X17210000Y-9100973D01*
X20445037Y-9100973D01*
X20565536Y-9333000D01*
X21773000Y-9333000D01*
X21773000Y-8126183D01*
X21540974Y-8005042D01*
X21390186Y-8050778D01*
X21125056Y-8177316D01*
X20889707Y-8353146D01*
X20693183Y-8571512D01*
X20543036Y-8824022D01*
X20445037Y-9100973D01*
X17210000Y-9100973D01*
X17210000Y-710000D01*
X36790000Y-710000D01*
X36790000Y-1034876D01*
X36790000Y-1034876D01*
G37*
X36790000Y-1034876D02*
X36790001Y-1034886D01*
X36790000Y-13965123D01*
X36786565Y-14000000D01*
X36800273Y-14139184D01*
X36840872Y-14273020D01*
X36906800Y-14396363D01*
X36995525Y-14504475D01*
X37031375Y-14533896D01*
X37103637Y-14593200D01*
X37226980Y-14659128D01*
X37360816Y-14699727D01*
X37500000Y-14713435D01*
X37534877Y-14710000D01*
X52705909Y-14710000D01*
X53290000Y-15294091D01*
X53290001Y-29290000D01*
X1294091Y-29290000D01*
X710000Y-28705909D01*
X710000Y-28135413D01*
X22844192Y-28135413D01*
X22939956Y-28399814D01*
X23229571Y-28540704D01*
X23541108Y-28622384D01*
X23862595Y-28641718D01*
X24181675Y-28597961D01*
X24486088Y-28492795D01*
X24660044Y-28399814D01*
X24755808Y-28135413D01*
X29344192Y-28135413D01*
X29439956Y-28399814D01*
X29729571Y-28540704D01*
X30041108Y-28622384D01*
X30362595Y-28641718D01*
X30681675Y-28597961D01*
X30986088Y-28492795D01*
X31160044Y-28399814D01*
X31255808Y-28135413D01*
X30300000Y-27179605D01*
X29344192Y-28135413D01*
X24755808Y-28135413D01*
X23800000Y-27179605D01*
X22844192Y-28135413D01*
X710000Y-28135413D01*
X710000Y-26850000D01*
X2611928Y-26850000D01*
X2624188Y-26974482D01*
X2660498Y-27094180D01*
X2719463Y-27204494D01*
X2798815Y-27301185D01*
X2895506Y-27380537D01*
X3005820Y-27439502D01*
X3125518Y-27475812D01*
X3250000Y-27488072D01*
X3814250Y-27485000D01*
X3973000Y-27326250D01*
X3973000Y-26127000D01*
X4227000Y-26127000D01*
X4227000Y-27326250D01*
X4385750Y-27485000D01*
X4950000Y-27488072D01*
X5074482Y-27475812D01*
X5194180Y-27439502D01*
X5304494Y-27380537D01*
X5401185Y-27301185D01*
X5480537Y-27204494D01*
X5539502Y-27094180D01*
X5549083Y-27062595D01*
X22158282Y-27062595D01*
X22202039Y-27381675D01*
X22307205Y-27686088D01*
X22400186Y-27860044D01*
X22664587Y-27955808D01*
X23620395Y-27000000D01*
X23979605Y-27000000D01*
X24935413Y-27955808D01*
X25199814Y-27860044D01*
X25340704Y-27570429D01*
X25422384Y-27258892D01*
X25434189Y-27062595D01*
X28658282Y-27062595D01*
X28702039Y-27381675D01*
X28807205Y-27686088D01*
X28900186Y-27860044D01*
X29164587Y-27955808D01*
X30120395Y-27000000D01*
X30479605Y-27000000D01*
X31435413Y-27955808D01*
X31699814Y-27860044D01*
X31840704Y-27570429D01*
X31922384Y-27258892D01*
X31941718Y-26937405D01*
X31897961Y-26618325D01*
X31792795Y-26313912D01*
X31699814Y-26139956D01*
X31435413Y-26044192D01*
X30479605Y-27000000D01*
X30120395Y-27000000D01*
X29164587Y-26044192D01*
X28900186Y-26139956D01*
X28759296Y-26429571D01*
X28677616Y-26741108D01*
X28658282Y-27062595D01*
X25434189Y-27062595D01*
X25441718Y-26937405D01*
X25397961Y-26618325D01*
X25292795Y-26313912D01*
X25199814Y-26139956D01*
X24935413Y-26044192D01*
X23979605Y-27000000D01*
X23620395Y-27000000D01*
X22664587Y-26044192D01*
X22400186Y-26139956D01*
X22259296Y-26429571D01*
X22177616Y-26741108D01*
X22158282Y-27062595D01*
X5549083Y-27062595D01*
X5575812Y-26974482D01*
X5588072Y-26850000D01*
X5585000Y-26285750D01*
X5426250Y-26127000D01*
X4227000Y-26127000D01*
X3973000Y-26127000D01*
X2773750Y-26127000D01*
X2615000Y-26285750D01*
X2611928Y-26850000D01*
X710000Y-26850000D01*
X710000Y-18380000D01*
X2607815Y-18380000D01*
X2636487Y-18671111D01*
X2721401Y-18951034D01*
X2859294Y-19209014D01*
X3044866Y-19435134D01*
X3270986Y-19620706D01*
X3325791Y-19650000D01*
X3270986Y-19679294D01*
X3044866Y-19864866D01*
X2859294Y-20090986D01*
X2721401Y-20348966D01*
X2636487Y-20628889D01*
X2607815Y-20920000D01*
X2636487Y-21211111D01*
X2721401Y-21491034D01*
X2859294Y-21749014D01*
X3044866Y-21975134D01*
X3270986Y-22160706D01*
X3325791Y-22190000D01*
X3270986Y-22219294D01*
X3044866Y-22404866D01*
X2859294Y-22630986D01*
X2721401Y-22888966D01*
X2636487Y-23168889D01*
X2607815Y-23460000D01*
X2636487Y-23751111D01*
X2721401Y-24031034D01*
X2859294Y-24289014D01*
X3044866Y-24515134D01*
X3074687Y-24539607D01*
X3005820Y-24560498D01*
X2895506Y-24619463D01*
X2798815Y-24698815D01*
X2719463Y-24795506D01*
X2660498Y-24905820D01*
X2624188Y-25025518D01*
X2611928Y-25150000D01*
X2615000Y-25714250D01*
X2773750Y-25873000D01*
X3973000Y-25873000D01*
X3973000Y-25853000D01*
X4227000Y-25853000D01*
X4227000Y-25873000D01*
X5426250Y-25873000D01*
X5434663Y-25864587D01*
X22844192Y-25864587D01*
X23800000Y-26820395D01*
X24755808Y-25864587D01*
X29344192Y-25864587D01*
X30300000Y-26820395D01*
X31255808Y-25864587D01*
X31160044Y-25600186D01*
X30870429Y-25459296D01*
X30558892Y-25377616D01*
X30237405Y-25358282D01*
X29918325Y-25402039D01*
X29613912Y-25507205D01*
X29439956Y-25600186D01*
X29344192Y-25864587D01*
X24755808Y-25864587D01*
X24660044Y-25600186D01*
X24370429Y-25459296D01*
X24058892Y-25377616D01*
X23737405Y-25358282D01*
X23418325Y-25402039D01*
X23113912Y-25507205D01*
X22939956Y-25600186D01*
X22844192Y-25864587D01*
X5434663Y-25864587D01*
X5585000Y-25714250D01*
X5588072Y-25150000D01*
X5575812Y-25025518D01*
X5539502Y-24905820D01*
X5480537Y-24795506D01*
X5401185Y-24698815D01*
X5304494Y-24619463D01*
X5194180Y-24560498D01*
X5125313Y-24539607D01*
X5155134Y-24515134D01*
X5340706Y-24289014D01*
X5478599Y-24031034D01*
X5563513Y-23751111D01*
X5592185Y-23460000D01*
X5563513Y-23168889D01*
X5478599Y-22888966D01*
X5340706Y-22630986D01*
X5155134Y-22404866D01*
X4929014Y-22219294D01*
X4874209Y-22190000D01*
X4929014Y-22160706D01*
X5155134Y-21975134D01*
X5340706Y-21749014D01*
X5364232Y-21705000D01*
X12591447Y-21705000D01*
X12630000Y-21708797D01*
X12668553Y-21705000D01*
X12668561Y-21705000D01*
X12783887Y-21693641D01*
X12931860Y-21648754D01*
X13068233Y-21575862D01*
X13187764Y-21477764D01*
X13212347Y-21447810D01*
X15239710Y-19420447D01*
X17759158Y-19420447D01*
X17903135Y-19725770D01*
X18260892Y-19906597D01*
X18647053Y-20014155D01*
X19046777Y-20044310D01*
X19444704Y-19995904D01*
X19825540Y-19870795D01*
X20096865Y-19725770D01*
X20240842Y-19420447D01*
X19000000Y-18179605D01*
X17759158Y-19420447D01*
X15239710Y-19420447D01*
X16983621Y-17676537D01*
X16955690Y-18046777D01*
X17004096Y-18444704D01*
X17129205Y-18825540D01*
X17274230Y-19096865D01*
X17579553Y-19240842D01*
X18820395Y-18000000D01*
X19179605Y-18000000D01*
X20420447Y-19240842D01*
X20725770Y-19096865D01*
X20837910Y-18875000D01*
X22036928Y-18875000D01*
X22049188Y-18999482D01*
X22085498Y-19119180D01*
X22144463Y-19229494D01*
X22223815Y-19326185D01*
X22320506Y-19405537D01*
X22430820Y-19464502D01*
X22550518Y-19500812D01*
X22675000Y-19513072D01*
X23014250Y-19510000D01*
X23173000Y-19351250D01*
X23173000Y-18127000D01*
X23427000Y-18127000D01*
X23427000Y-19351250D01*
X23585750Y-19510000D01*
X23925000Y-19513072D01*
X24049482Y-19500812D01*
X24169180Y-19464502D01*
X24279494Y-19405537D01*
X24376185Y-19326185D01*
X24455537Y-19229494D01*
X24514502Y-19119180D01*
X24550812Y-18999482D01*
X24563072Y-18875000D01*
X24560000Y-18285750D01*
X24401250Y-18127000D01*
X23427000Y-18127000D01*
X23173000Y-18127000D01*
X22198750Y-18127000D01*
X22040000Y-18285750D01*
X22036928Y-18875000D01*
X20837910Y-18875000D01*
X20906597Y-18739108D01*
X21014155Y-18352947D01*
X21044310Y-17953223D01*
X20995904Y-17555296D01*
X20870795Y-17174460D01*
X20844359Y-17125000D01*
X22036928Y-17125000D01*
X22040000Y-17714250D01*
X22198750Y-17873000D01*
X23173000Y-17873000D01*
X23173000Y-16648750D01*
X23427000Y-16648750D01*
X23427000Y-17873000D01*
X24401250Y-17873000D01*
X24560000Y-17714250D01*
X24563072Y-17125000D01*
X24550812Y-17000518D01*
X24514502Y-16880820D01*
X24455537Y-16770506D01*
X24376185Y-16673815D01*
X24279494Y-16594463D01*
X24169180Y-16535498D01*
X24049482Y-16499188D01*
X23925000Y-16486928D01*
X23585750Y-16490000D01*
X23427000Y-16648750D01*
X23173000Y-16648750D01*
X23014250Y-16490000D01*
X22675000Y-16486928D01*
X22550518Y-16499188D01*
X22430820Y-16535498D01*
X22320506Y-16594463D01*
X22223815Y-16673815D01*
X22144463Y-16770506D01*
X22085498Y-16880820D01*
X22049188Y-17000518D01*
X22036928Y-17125000D01*
X20844359Y-17125000D01*
X20725770Y-16903135D01*
X20420447Y-16759158D01*
X19179605Y-18000000D01*
X18820395Y-18000000D01*
X18806253Y-17985858D01*
X18985858Y-17806253D01*
X19000000Y-17820395D01*
X20240842Y-16579553D01*
X20096865Y-16274230D01*
X19739108Y-16093403D01*
X19574843Y-16047650D01*
X26218797Y-16047650D01*
X26257350Y-16051447D01*
X26295903Y-16047650D01*
X26295911Y-16047650D01*
X26411237Y-16036291D01*
X26559210Y-15991404D01*
X26695583Y-15918512D01*
X26815114Y-15820414D01*
X26839697Y-15790460D01*
X27810000Y-14820157D01*
X28565501Y-15575659D01*
X28565501Y-16509224D01*
X28548254Y-16503992D01*
X28375000Y-16486928D01*
X27625000Y-16486928D01*
X27451746Y-16503992D01*
X27285150Y-16554528D01*
X27131614Y-16636595D01*
X27050000Y-16703573D01*
X26968386Y-16636595D01*
X26814850Y-16554528D01*
X26648254Y-16503992D01*
X26475000Y-16486928D01*
X25725000Y-16486928D01*
X25551746Y-16503992D01*
X25385150Y-16554528D01*
X25231614Y-16636595D01*
X25097038Y-16747038D01*
X24986595Y-16881614D01*
X24904528Y-17035150D01*
X24853992Y-17201746D01*
X24836928Y-17375000D01*
X24836928Y-18625000D01*
X24853992Y-18798254D01*
X24904528Y-18964850D01*
X24986595Y-19118386D01*
X25097038Y-19252962D01*
X25231614Y-19363405D01*
X25385150Y-19445472D01*
X25551746Y-19496008D01*
X25725000Y-19513072D01*
X26475000Y-19513072D01*
X26648254Y-19496008D01*
X26814850Y-19445472D01*
X26968386Y-19363405D01*
X27050000Y-19296427D01*
X27131614Y-19363405D01*
X27285150Y-19445472D01*
X27451746Y-19496008D01*
X27625000Y-19513072D01*
X28375000Y-19513072D01*
X28548254Y-19496008D01*
X28714850Y-19445472D01*
X28790213Y-19405190D01*
X28792736Y-19408264D01*
X28822690Y-19432847D01*
X29702253Y-20312410D01*
X29726836Y-20342364D01*
X29846367Y-20440462D01*
X29982740Y-20513354D01*
X30130713Y-20558242D01*
X30205626Y-20565620D01*
X30246039Y-20569600D01*
X30246044Y-20569600D01*
X30284600Y-20573397D01*
X30323156Y-20569600D01*
X48391547Y-20569600D01*
X48430100Y-20573397D01*
X48468653Y-20569600D01*
X48468661Y-20569600D01*
X48583987Y-20558241D01*
X48731960Y-20513354D01*
X48763789Y-20496341D01*
X48844866Y-20595134D01*
X49070986Y-20780706D01*
X49125791Y-20810000D01*
X49070986Y-20839294D01*
X48844866Y-21024866D01*
X48659294Y-21250986D01*
X48521401Y-21508966D01*
X48436487Y-21788889D01*
X48407815Y-22080000D01*
X48436487Y-22371111D01*
X48521401Y-22651034D01*
X48659294Y-22909014D01*
X48844866Y-23135134D01*
X49070986Y-23320706D01*
X49125791Y-23350000D01*
X49070986Y-23379294D01*
X48844866Y-23564866D01*
X48659294Y-23790986D01*
X48635768Y-23835000D01*
X32745157Y-23835000D01*
X31874640Y-22964483D01*
X31935000Y-22661033D01*
X31935000Y-22338967D01*
X31872168Y-22023088D01*
X31748918Y-21725537D01*
X31569987Y-21457748D01*
X31342252Y-21230013D01*
X31074463Y-21051082D01*
X30776912Y-20927832D01*
X30461033Y-20865000D01*
X30138967Y-20865000D01*
X29823088Y-20927832D01*
X29525537Y-21051082D01*
X29257748Y-21230013D01*
X29030013Y-21457748D01*
X28858123Y-21715000D01*
X25241877Y-21715000D01*
X25069987Y-21457748D01*
X24842252Y-21230013D01*
X24574463Y-21051082D01*
X24276912Y-20927832D01*
X23961033Y-20865000D01*
X23638967Y-20865000D01*
X23323088Y-20927832D01*
X23025537Y-21051082D01*
X22757748Y-21230013D01*
X22530013Y-21457748D01*
X22351082Y-21725537D01*
X22227832Y-22023088D01*
X22165000Y-22338967D01*
X22165000Y-22661033D01*
X22227832Y-22976912D01*
X22351082Y-23274463D01*
X22530013Y-23542252D01*
X22757748Y-23769987D01*
X23025537Y-23948918D01*
X23323088Y-24072168D01*
X23638967Y-24135000D01*
X23961033Y-24135000D01*
X24276912Y-24072168D01*
X24574463Y-23948918D01*
X24842252Y-23769987D01*
X25069987Y-23542252D01*
X25241877Y-23285000D01*
X28858123Y-23285000D01*
X29030013Y-23542252D01*
X29257748Y-23769987D01*
X29525537Y-23948918D01*
X29823088Y-24072168D01*
X30138967Y-24135000D01*
X30461033Y-24135000D01*
X30764483Y-24074640D01*
X31837653Y-25147810D01*
X31862236Y-25177764D01*
X31981767Y-25275862D01*
X32118140Y-25348754D01*
X32266113Y-25393642D01*
X32341026Y-25401020D01*
X32381439Y-25405000D01*
X32381444Y-25405000D01*
X32420000Y-25408797D01*
X32458556Y-25405000D01*
X48635768Y-25405000D01*
X48659294Y-25449014D01*
X48844866Y-25675134D01*
X49070986Y-25860706D01*
X49125791Y-25890000D01*
X49070986Y-25919294D01*
X48844866Y-26104866D01*
X48659294Y-26330986D01*
X48521401Y-26588966D01*
X48436487Y-26868889D01*
X48407815Y-27160000D01*
X48436487Y-27451111D01*
X48521401Y-27731034D01*
X48659294Y-27989014D01*
X48844866Y-28215134D01*
X49070986Y-28400706D01*
X49328966Y-28538599D01*
X49608889Y-28623513D01*
X49827050Y-28645000D01*
X49972950Y-28645000D01*
X50191111Y-28623513D01*
X50471034Y-28538599D01*
X50729014Y-28400706D01*
X50955134Y-28215134D01*
X51140706Y-27989014D01*
X51278599Y-27731034D01*
X51363513Y-27451111D01*
X51392185Y-27160000D01*
X51363513Y-26868889D01*
X51278599Y-26588966D01*
X51140706Y-26330986D01*
X50955134Y-26104866D01*
X50729014Y-25919294D01*
X50674209Y-25890000D01*
X50729014Y-25860706D01*
X50955134Y-25675134D01*
X51140706Y-25449014D01*
X51278599Y-25191034D01*
X51363513Y-24911111D01*
X51392185Y-24620000D01*
X51363513Y-24328889D01*
X51278599Y-24048966D01*
X51140706Y-23790986D01*
X50955134Y-23564866D01*
X50729014Y-23379294D01*
X50674209Y-23350000D01*
X50729014Y-23320706D01*
X50955134Y-23135134D01*
X51140706Y-22909014D01*
X51278599Y-22651034D01*
X51363513Y-22371111D01*
X51392185Y-22080000D01*
X51363513Y-21788889D01*
X51349026Y-21741132D01*
X51686417Y-21403741D01*
X51716364Y-21379164D01*
X51814462Y-21259633D01*
X51887354Y-21123260D01*
X51902331Y-21073887D01*
X51932241Y-20975288D01*
X51937824Y-20918599D01*
X51943600Y-20859961D01*
X51943600Y-20859954D01*
X51947397Y-20821401D01*
X51943600Y-20782848D01*
X51943600Y-19104256D01*
X51947397Y-19065700D01*
X51943600Y-19027144D01*
X51943600Y-19027139D01*
X51939177Y-18982236D01*
X51932242Y-18911813D01*
X51887354Y-18763840D01*
X51880599Y-18751203D01*
X51814462Y-18627467D01*
X51716364Y-18507936D01*
X51686410Y-18483353D01*
X51324780Y-18121723D01*
X51339502Y-18094180D01*
X51375812Y-17974482D01*
X51388072Y-17850000D01*
X51385000Y-17285750D01*
X51226250Y-17127000D01*
X50027000Y-17127000D01*
X50027000Y-17147000D01*
X49773000Y-17147000D01*
X49773000Y-17127000D01*
X48573750Y-17127000D01*
X48415000Y-17285750D01*
X48414158Y-17440400D01*
X39210557Y-17440400D01*
X37920157Y-16150000D01*
X48411928Y-16150000D01*
X48415000Y-16714250D01*
X48573750Y-16873000D01*
X49773000Y-16873000D01*
X49773000Y-15673750D01*
X50027000Y-15673750D01*
X50027000Y-16873000D01*
X51226250Y-16873000D01*
X51385000Y-16714250D01*
X51388072Y-16150000D01*
X51375812Y-16025518D01*
X51339502Y-15905820D01*
X51280537Y-15795506D01*
X51201185Y-15698815D01*
X51104494Y-15619463D01*
X50994180Y-15560498D01*
X50874482Y-15524188D01*
X50750000Y-15511928D01*
X50185750Y-15515000D01*
X50027000Y-15673750D01*
X49773000Y-15673750D01*
X49614250Y-15515000D01*
X49050000Y-15511928D01*
X48925518Y-15524188D01*
X48805820Y-15560498D01*
X48695506Y-15619463D01*
X48598815Y-15698815D01*
X48519463Y-15795506D01*
X48460498Y-15905820D01*
X48424188Y-16025518D01*
X48411928Y-16150000D01*
X37920157Y-16150000D01*
X35050011Y-13279854D01*
X35050011Y-9864467D01*
X35053808Y-9825911D01*
X35050011Y-9787355D01*
X35050011Y-9787350D01*
X35046031Y-9746937D01*
X35038653Y-9672024D01*
X34993765Y-9524051D01*
X34920873Y-9387678D01*
X34822775Y-9268147D01*
X34792821Y-9243564D01*
X33239447Y-7690190D01*
X33214864Y-7660236D01*
X33095333Y-7562138D01*
X32958960Y-7489246D01*
X32810987Y-7444359D01*
X32695661Y-7433000D01*
X32695653Y-7433000D01*
X32657100Y-7429203D01*
X32618547Y-7433000D01*
X28260552Y-7433000D01*
X28221999Y-7429203D01*
X28183446Y-7433000D01*
X28183439Y-7433000D01*
X28082490Y-7442943D01*
X28068112Y-7444359D01*
X28033672Y-7454806D01*
X27920140Y-7489246D01*
X27783767Y-7562138D01*
X27723559Y-7611550D01*
X27694187Y-7635655D01*
X27694184Y-7635658D01*
X27664236Y-7660236D01*
X27639658Y-7690185D01*
X27329772Y-8000070D01*
X27273777Y-7983084D01*
X27053619Y-7961400D01*
X26906381Y-7961400D01*
X26686223Y-7983084D01*
X26403736Y-8068775D01*
X26143394Y-8207931D01*
X25915203Y-8395203D01*
X25727931Y-8623394D01*
X25710000Y-8656940D01*
X25692069Y-8623394D01*
X25504797Y-8395203D01*
X25276606Y-8207931D01*
X25016264Y-8068775D01*
X24733777Y-7983084D01*
X24513619Y-7961400D01*
X24366381Y-7961400D01*
X24146223Y-7983084D01*
X23863736Y-8068775D01*
X23603394Y-8207931D01*
X23375203Y-8395203D01*
X23187931Y-8623394D01*
X23164137Y-8667910D01*
X23106817Y-8571512D01*
X22910293Y-8353146D01*
X22674944Y-8177316D01*
X22409814Y-8050778D01*
X22259026Y-8005042D01*
X22027000Y-8126183D01*
X22027000Y-9333000D01*
X22047000Y-9333000D01*
X22047000Y-9587000D01*
X22027000Y-9587000D01*
X22027000Y-9607000D01*
X21773000Y-9607000D01*
X21773000Y-9587000D01*
X20565536Y-9587000D01*
X20445037Y-9819027D01*
X20543036Y-10095978D01*
X20693183Y-10348488D01*
X20854692Y-10527947D01*
X20792220Y-10546898D01*
X20681906Y-10605863D01*
X20585215Y-10685215D01*
X20505863Y-10781906D01*
X20446898Y-10892220D01*
X20410588Y-11011918D01*
X20398328Y-11136400D01*
X20398328Y-12863600D01*
X20410588Y-12988082D01*
X20446898Y-13107780D01*
X20505863Y-13218094D01*
X20585215Y-13314785D01*
X20681906Y-13394137D01*
X20792220Y-13453102D01*
X20911918Y-13489412D01*
X21036400Y-13501672D01*
X21561271Y-13501672D01*
X21180293Y-13882650D01*
X18178430Y-13882650D01*
X18139874Y-13878853D01*
X18101318Y-13882650D01*
X18101313Y-13882650D01*
X18060900Y-13886630D01*
X17985987Y-13894008D01*
X17838014Y-13938896D01*
X17701641Y-14011788D01*
X17582110Y-14109886D01*
X17557529Y-14139838D01*
X14102367Y-17595000D01*
X5364232Y-17595000D01*
X5340706Y-17550986D01*
X5155134Y-17324866D01*
X4929014Y-17139294D01*
X4671034Y-17001401D01*
X4391111Y-16916487D01*
X4172950Y-16895000D01*
X4027050Y-16895000D01*
X3808889Y-16916487D01*
X3528966Y-17001401D01*
X3270986Y-17139294D01*
X3044866Y-17324866D01*
X2859294Y-17550986D01*
X2721401Y-17808966D01*
X2636487Y-18088889D01*
X2607815Y-18380000D01*
X710000Y-18380000D01*
X710000Y-14710000D01*
X16465123Y-14710000D01*
X16500000Y-14713435D01*
X16534877Y-14710000D01*
X16639184Y-14699727D01*
X16773020Y-14659128D01*
X16896363Y-14593200D01*
X17004475Y-14504475D01*
X17093200Y-14396363D01*
X17159128Y-14273020D01*
X17199727Y-14139184D01*
X17213435Y-14000000D01*
X17210000Y-13965123D01*
X17210000Y-9100973D01*
X20445037Y-9100973D01*
X20565536Y-9333000D01*
X21773000Y-9333000D01*
X21773000Y-8126183D01*
X21540974Y-8005042D01*
X21390186Y-8050778D01*
X21125056Y-8177316D01*
X20889707Y-8353146D01*
X20693183Y-8571512D01*
X20543036Y-8824022D01*
X20445037Y-9100973D01*
X17210000Y-9100973D01*
X17210000Y-710000D01*
X36790000Y-710000D01*
X36790000Y-1034876D01*
G36*
X32187000Y-11873000D02*
G01*
X32207000Y-11873000D01*
X32207000Y-12127000D01*
X32187000Y-12127000D01*
X32187000Y-13333817D01*
X32419026Y-13454958D01*
X32569814Y-13409222D01*
X32755000Y-13320838D01*
X32755001Y-16596521D01*
X32750719Y-16640000D01*
X32767805Y-16813490D01*
X32818412Y-16980313D01*
X32890403Y-17115000D01*
X32019694Y-17115000D01*
X31995472Y-17035150D01*
X31913405Y-16881614D01*
X31802962Y-16747038D01*
X31668386Y-16636595D01*
X31514850Y-16554528D01*
X31348254Y-16503992D01*
X31175000Y-16486928D01*
X30425000Y-16486928D01*
X30251746Y-16503992D01*
X30135500Y-16539255D01*
X30135500Y-15289053D01*
X30139297Y-15250500D01*
X30135500Y-15211947D01*
X30135500Y-15211939D01*
X30124141Y-15096613D01*
X30079254Y-14948640D01*
X30006362Y-14812267D01*
X29908264Y-14692736D01*
X29878316Y-14668158D01*
X28920157Y-13710000D01*
X29170227Y-13459930D01*
X29226223Y-13476916D01*
X29446381Y-13498600D01*
X29593619Y-13498600D01*
X29813777Y-13476916D01*
X30096264Y-13391225D01*
X30356606Y-13252069D01*
X30584797Y-13064797D01*
X30772069Y-12836606D01*
X30795863Y-12792090D01*
X30853183Y-12888488D01*
X31049707Y-13106854D01*
X31285056Y-13282684D01*
X31550186Y-13409222D01*
X31700974Y-13454958D01*
X31933000Y-13333817D01*
X31933000Y-12127000D01*
X31913000Y-12127000D01*
X31913000Y-11873000D01*
X31933000Y-11873000D01*
X31933000Y-11853000D01*
X32187000Y-11853000D01*
X32187000Y-11873000D01*
X32187000Y-11873000D01*
G37*
X32187000Y-11873000D02*
X32207000Y-11873000D01*
X32207000Y-12127000D01*
X32187000Y-12127000D01*
X32187000Y-13333817D01*
X32419026Y-13454958D01*
X32569814Y-13409222D01*
X32755000Y-13320838D01*
X32755001Y-16596521D01*
X32750719Y-16640000D01*
X32767805Y-16813490D01*
X32818412Y-16980313D01*
X32890403Y-17115000D01*
X32019694Y-17115000D01*
X31995472Y-17035150D01*
X31913405Y-16881614D01*
X31802962Y-16747038D01*
X31668386Y-16636595D01*
X31514850Y-16554528D01*
X31348254Y-16503992D01*
X31175000Y-16486928D01*
X30425000Y-16486928D01*
X30251746Y-16503992D01*
X30135500Y-16539255D01*
X30135500Y-15289053D01*
X30139297Y-15250500D01*
X30135500Y-15211947D01*
X30135500Y-15211939D01*
X30124141Y-15096613D01*
X30079254Y-14948640D01*
X30006362Y-14812267D01*
X29908264Y-14692736D01*
X29878316Y-14668158D01*
X28920157Y-13710000D01*
X29170227Y-13459930D01*
X29226223Y-13476916D01*
X29446381Y-13498600D01*
X29593619Y-13498600D01*
X29813777Y-13476916D01*
X30096264Y-13391225D01*
X30356606Y-13252069D01*
X30584797Y-13064797D01*
X30772069Y-12836606D01*
X30795863Y-12792090D01*
X30853183Y-12888488D01*
X31049707Y-13106854D01*
X31285056Y-13282684D01*
X31550186Y-13409222D01*
X31700974Y-13454958D01*
X31933000Y-13333817D01*
X31933000Y-12127000D01*
X31913000Y-12127000D01*
X31913000Y-11873000D01*
X31933000Y-11873000D01*
X31933000Y-11853000D01*
X32187000Y-11853000D01*
X32187000Y-11873000D01*
G36*
X24567000Y-11873000D02*
G01*
X24587000Y-11873000D01*
X24587000Y-12127000D01*
X24567000Y-12127000D01*
X24567000Y-13333817D01*
X24799026Y-13454958D01*
X24949814Y-13409222D01*
X25214944Y-13282684D01*
X25450293Y-13106854D01*
X25646817Y-12888488D01*
X25704137Y-12792090D01*
X25727931Y-12836606D01*
X25915203Y-13064797D01*
X26143394Y-13252069D01*
X26403736Y-13391225D01*
X26686223Y-13476916D01*
X26906381Y-13498600D01*
X26911243Y-13498600D01*
X25932193Y-14477650D01*
X22805607Y-14477650D01*
X23728916Y-13554342D01*
X23758864Y-13529764D01*
X23856962Y-13410233D01*
X23872275Y-13381583D01*
X23930186Y-13409222D01*
X24080974Y-13454958D01*
X24313000Y-13333817D01*
X24313000Y-12127000D01*
X24293000Y-12127000D01*
X24293000Y-11873000D01*
X24313000Y-11873000D01*
X24313000Y-11853000D01*
X24567000Y-11853000D01*
X24567000Y-11873000D01*
X24567000Y-11873000D01*
G37*
X24567000Y-11873000D02*
X24587000Y-11873000D01*
X24587000Y-12127000D01*
X24567000Y-12127000D01*
X24567000Y-13333817D01*
X24799026Y-13454958D01*
X24949814Y-13409222D01*
X25214944Y-13282684D01*
X25450293Y-13106854D01*
X25646817Y-12888488D01*
X25704137Y-12792090D01*
X25727931Y-12836606D01*
X25915203Y-13064797D01*
X26143394Y-13252069D01*
X26403736Y-13391225D01*
X26686223Y-13476916D01*
X26906381Y-13498600D01*
X26911243Y-13498600D01*
X25932193Y-14477650D01*
X22805607Y-14477650D01*
X23728916Y-13554342D01*
X23758864Y-13529764D01*
X23856962Y-13410233D01*
X23872275Y-13381583D01*
X23930186Y-13409222D01*
X24080974Y-13454958D01*
X24313000Y-13333817D01*
X24313000Y-12127000D01*
X24293000Y-12127000D01*
X24293000Y-11873000D01*
X24313000Y-11873000D01*
X24313000Y-11853000D01*
X24567000Y-11853000D01*
X24567000Y-11873000D01*
G36*
X30807931Y-10296606D02*
G01*
X30995203Y-10524797D01*
X31223394Y-10712069D01*
X31263433Y-10733470D01*
X31049707Y-10893146D01*
X30853183Y-11111512D01*
X30795863Y-11207910D01*
X30772069Y-11163394D01*
X30584797Y-10935203D01*
X30356606Y-10747931D01*
X30323060Y-10730000D01*
X30356606Y-10712069D01*
X30584797Y-10524797D01*
X30772069Y-10296606D01*
X30790000Y-10263060D01*
X30807931Y-10296606D01*
X30807931Y-10296606D01*
G37*
X30807931Y-10296606D02*
X30995203Y-10524797D01*
X31223394Y-10712069D01*
X31263433Y-10733470D01*
X31049707Y-10893146D01*
X30853183Y-11111512D01*
X30795863Y-11207910D01*
X30772069Y-11163394D01*
X30584797Y-10935203D01*
X30356606Y-10747931D01*
X30323060Y-10730000D01*
X30356606Y-10712069D01*
X30584797Y-10524797D01*
X30772069Y-10296606D01*
X30790000Y-10263060D01*
X30807931Y-10296606D01*
G36*
X25727931Y-10296606D02*
G01*
X25915203Y-10524797D01*
X26143394Y-10712069D01*
X26176940Y-10730000D01*
X26143394Y-10747931D01*
X25915203Y-10935203D01*
X25727931Y-11163394D01*
X25704137Y-11207910D01*
X25646817Y-11111512D01*
X25450293Y-10893146D01*
X25236567Y-10733470D01*
X25276606Y-10712069D01*
X25504797Y-10524797D01*
X25692069Y-10296606D01*
X25710000Y-10263060D01*
X25727931Y-10296606D01*
X25727931Y-10296606D01*
G37*
X25727931Y-10296606D02*
X25915203Y-10524797D01*
X26143394Y-10712069D01*
X26176940Y-10730000D01*
X26143394Y-10747931D01*
X25915203Y-10935203D01*
X25727931Y-11163394D01*
X25704137Y-11207910D01*
X25646817Y-11111512D01*
X25450293Y-10893146D01*
X25236567Y-10733470D01*
X25276606Y-10712069D01*
X25504797Y-10524797D01*
X25692069Y-10296606D01*
X25710000Y-10263060D01*
X25727931Y-10296606D01*
M02*
