G04 #@! TF.GenerationSoftware,KiCad,Pcbnew,(5.1.4)-1*
G04 #@! TF.CreationDate,2020-05-20T00:47:24+02:00*
G04 #@! TF.ProjectId,project_gtag,70726f6a-6563-4745-9f67-7461672e6b69,V3.1*
G04 #@! TF.SameCoordinates,PX7735940PY44aa200*
G04 #@! TF.FileFunction,Legend,Top*
G04 #@! TF.FilePolarity,Positive*
%FSLAX46Y46*%
G04 Gerber Fmt 4.6, Leading zero omitted, Abs format (unit mm)*
G04 Created by KiCad (PCBNEW (5.1.4)-1) date 2020-05-20 00:47:24*
%MOMM*%
%LPD*%
G04 APERTURE LIST*
%ADD10C,0.160000*%
%ADD11C,0.150000*%
%ADD12C,0.250000*%
%ADD13C,0.350000*%
%ADD14C,0.120000*%
G04 APERTURE END LIST*
D10*
X1155238Y-15361904D02*
X774285Y-15361904D01*
X774285Y-14561904D01*
X1421904Y-15361904D02*
X1421904Y-14828571D01*
X1421904Y-14561904D02*
X1383809Y-14600000D01*
X1421904Y-14638095D01*
X1460000Y-14600000D01*
X1421904Y-14561904D01*
X1421904Y-14638095D01*
X2145714Y-15323809D02*
X2069523Y-15361904D01*
X1917142Y-15361904D01*
X1840952Y-15323809D01*
X1802857Y-15285714D01*
X1764761Y-15209523D01*
X1764761Y-14980952D01*
X1802857Y-14904761D01*
X1840952Y-14866666D01*
X1917142Y-14828571D01*
X2069523Y-14828571D01*
X2145714Y-14866666D01*
X2793333Y-15323809D02*
X2717142Y-15361904D01*
X2564761Y-15361904D01*
X2488571Y-15323809D01*
X2450476Y-15247619D01*
X2450476Y-14942857D01*
X2488571Y-14866666D01*
X2564761Y-14828571D01*
X2717142Y-14828571D01*
X2793333Y-14866666D01*
X2831428Y-14942857D01*
X2831428Y-15019047D01*
X2450476Y-15095238D01*
X3174285Y-14828571D02*
X3174285Y-15361904D01*
X3174285Y-14904761D02*
X3212380Y-14866666D01*
X3288571Y-14828571D01*
X3402857Y-14828571D01*
X3479047Y-14866666D01*
X3517142Y-14942857D01*
X3517142Y-15361904D01*
X3860000Y-15323809D02*
X3936190Y-15361904D01*
X4088571Y-15361904D01*
X4164761Y-15323809D01*
X4202857Y-15247619D01*
X4202857Y-15209523D01*
X4164761Y-15133333D01*
X4088571Y-15095238D01*
X3974285Y-15095238D01*
X3898095Y-15057142D01*
X3860000Y-14980952D01*
X3860000Y-14942857D01*
X3898095Y-14866666D01*
X3974285Y-14828571D01*
X4088571Y-14828571D01*
X4164761Y-14866666D01*
X4850476Y-15323809D02*
X4774285Y-15361904D01*
X4621904Y-15361904D01*
X4545714Y-15323809D01*
X4507619Y-15247619D01*
X4507619Y-14942857D01*
X4545714Y-14866666D01*
X4621904Y-14828571D01*
X4774285Y-14828571D01*
X4850476Y-14866666D01*
X4888571Y-14942857D01*
X4888571Y-15019047D01*
X4507619Y-15095238D01*
X5574285Y-15361904D02*
X5574285Y-14561904D01*
X5574285Y-15323809D02*
X5498095Y-15361904D01*
X5345714Y-15361904D01*
X5269523Y-15323809D01*
X5231428Y-15285714D01*
X5193333Y-15209523D01*
X5193333Y-14980952D01*
X5231428Y-14904761D01*
X5269523Y-14866666D01*
X5345714Y-14828571D01*
X5498095Y-14828571D01*
X5574285Y-14866666D01*
X6907619Y-14828571D02*
X6907619Y-15361904D01*
X6564761Y-14828571D02*
X6564761Y-15247619D01*
X6602857Y-15323809D01*
X6679047Y-15361904D01*
X6793333Y-15361904D01*
X6869523Y-15323809D01*
X6907619Y-15285714D01*
X7288571Y-14828571D02*
X7288571Y-15361904D01*
X7288571Y-14904761D02*
X7326666Y-14866666D01*
X7402857Y-14828571D01*
X7517142Y-14828571D01*
X7593333Y-14866666D01*
X7631428Y-14942857D01*
X7631428Y-15361904D01*
X8355238Y-15361904D02*
X8355238Y-14561904D01*
X8355238Y-15323809D02*
X8279047Y-15361904D01*
X8126666Y-15361904D01*
X8050476Y-15323809D01*
X8012380Y-15285714D01*
X7974285Y-15209523D01*
X7974285Y-14980952D01*
X8012380Y-14904761D01*
X8050476Y-14866666D01*
X8126666Y-14828571D01*
X8279047Y-14828571D01*
X8355238Y-14866666D01*
X9040952Y-15323809D02*
X8964761Y-15361904D01*
X8812380Y-15361904D01*
X8736190Y-15323809D01*
X8698095Y-15247619D01*
X8698095Y-14942857D01*
X8736190Y-14866666D01*
X8812380Y-14828571D01*
X8964761Y-14828571D01*
X9040952Y-14866666D01*
X9079047Y-14942857D01*
X9079047Y-15019047D01*
X8698095Y-15095238D01*
X9421904Y-15361904D02*
X9421904Y-14828571D01*
X9421904Y-14980952D02*
X9460000Y-14904761D01*
X9498095Y-14866666D01*
X9574285Y-14828571D01*
X9650476Y-14828571D01*
X10983809Y-15285714D02*
X10945714Y-15323809D01*
X10831428Y-15361904D01*
X10755238Y-15361904D01*
X10640952Y-15323809D01*
X10564761Y-15247619D01*
X10526666Y-15171428D01*
X10488571Y-15019047D01*
X10488571Y-14904761D01*
X10526666Y-14752380D01*
X10564761Y-14676190D01*
X10640952Y-14600000D01*
X10755238Y-14561904D01*
X10831428Y-14561904D01*
X10945714Y-14600000D01*
X10983809Y-14638095D01*
X11326666Y-14942857D02*
X11593333Y-14942857D01*
X11707619Y-15361904D02*
X11326666Y-15361904D01*
X11326666Y-14561904D01*
X11707619Y-14561904D01*
X12507619Y-15361904D02*
X12240952Y-14980952D01*
X12050476Y-15361904D02*
X12050476Y-14561904D01*
X12355238Y-14561904D01*
X12431428Y-14600000D01*
X12469523Y-14638095D01*
X12507619Y-14714285D01*
X12507619Y-14828571D01*
X12469523Y-14904761D01*
X12431428Y-14942857D01*
X12355238Y-14980952D01*
X12050476Y-14980952D01*
X12850476Y-15361904D02*
X12850476Y-14561904D01*
X13307619Y-15361904D01*
X13307619Y-14561904D01*
X14450476Y-14561904D02*
X14602857Y-14561904D01*
X14679047Y-14600000D01*
X14755238Y-14676190D01*
X14793333Y-14828571D01*
X14793333Y-15095238D01*
X14755238Y-15247619D01*
X14679047Y-15323809D01*
X14602857Y-15361904D01*
X14450476Y-15361904D01*
X14374285Y-15323809D01*
X14298095Y-15247619D01*
X14260000Y-15095238D01*
X14260000Y-14828571D01*
X14298095Y-14676190D01*
X14374285Y-14600000D01*
X14450476Y-14561904D01*
X15136190Y-15361904D02*
X15136190Y-14561904D01*
X15136190Y-14942857D02*
X15593333Y-14942857D01*
X15593333Y-15361904D02*
X15593333Y-14561904D01*
X16355238Y-15361904D02*
X15974285Y-15361904D01*
X15974285Y-14561904D01*
X17155238Y-14828571D02*
X17345714Y-15361904D01*
X17536190Y-14828571D01*
X17840952Y-15285714D02*
X17879047Y-15323809D01*
X17840952Y-15361904D01*
X17802857Y-15323809D01*
X17840952Y-15285714D01*
X17840952Y-15361904D01*
X18640952Y-15361904D02*
X18183809Y-15361904D01*
X18412380Y-15361904D02*
X18412380Y-14561904D01*
X18336190Y-14676190D01*
X18260000Y-14752380D01*
X18183809Y-14790476D01*
X18983809Y-15285714D02*
X19021904Y-15323809D01*
X18983809Y-15361904D01*
X18945714Y-15323809D01*
X18983809Y-15285714D01*
X18983809Y-15361904D01*
X19326666Y-14638095D02*
X19364761Y-14600000D01*
X19440952Y-14561904D01*
X19631428Y-14561904D01*
X19707619Y-14600000D01*
X19745714Y-14638095D01*
X19783809Y-14714285D01*
X19783809Y-14790476D01*
X19745714Y-14904761D01*
X19288571Y-15361904D01*
X19783809Y-15361904D01*
D11*
X39738095Y-15504761D02*
X39833333Y-15552380D01*
X40023809Y-15552380D01*
X40119047Y-15504761D01*
X40166666Y-15409523D01*
X40166666Y-15361904D01*
X40119047Y-15266666D01*
X40023809Y-15219047D01*
X39880952Y-15219047D01*
X39785714Y-15171428D01*
X39738095Y-15076190D01*
X39738095Y-15028571D01*
X39785714Y-14933333D01*
X39880952Y-14885714D01*
X40023809Y-14885714D01*
X40119047Y-14933333D01*
X40595238Y-15552380D02*
X40595238Y-14885714D01*
X40595238Y-14552380D02*
X40547619Y-14600000D01*
X40595238Y-14647619D01*
X40642857Y-14600000D01*
X40595238Y-14552380D01*
X40595238Y-14647619D01*
X41071428Y-15552380D02*
X41071428Y-14885714D01*
X41071428Y-14980952D02*
X41119047Y-14933333D01*
X41214285Y-14885714D01*
X41357142Y-14885714D01*
X41452380Y-14933333D01*
X41500000Y-15028571D01*
X41500000Y-15552380D01*
X41500000Y-15028571D02*
X41547619Y-14933333D01*
X41642857Y-14885714D01*
X41785714Y-14885714D01*
X41880952Y-14933333D01*
X41928571Y-15028571D01*
X41928571Y-15552380D01*
X42404761Y-14885714D02*
X42404761Y-15885714D01*
X42404761Y-14933333D02*
X42500000Y-14885714D01*
X42690476Y-14885714D01*
X42785714Y-14933333D01*
X42833333Y-14980952D01*
X42880952Y-15076190D01*
X42880952Y-15361904D01*
X42833333Y-15457142D01*
X42785714Y-15504761D01*
X42690476Y-15552380D01*
X42500000Y-15552380D01*
X42404761Y-15504761D01*
X43452380Y-15552380D02*
X43357142Y-15504761D01*
X43309523Y-15409523D01*
X43309523Y-14552380D01*
X44214285Y-15504761D02*
X44119047Y-15552380D01*
X43928571Y-15552380D01*
X43833333Y-15504761D01*
X43785714Y-15409523D01*
X43785714Y-15028571D01*
X43833333Y-14933333D01*
X43928571Y-14885714D01*
X44119047Y-14885714D01*
X44214285Y-14933333D01*
X44261904Y-15028571D01*
X44261904Y-15123809D01*
X43785714Y-15219047D01*
X1200000Y-29104761D02*
X1104761Y-29152380D01*
X914285Y-29152380D01*
X819047Y-29104761D01*
X771428Y-29057142D01*
X723809Y-28961904D01*
X723809Y-28676190D01*
X771428Y-28580952D01*
X819047Y-28533333D01*
X914285Y-28485714D01*
X1104761Y-28485714D01*
X1200000Y-28533333D01*
X1771428Y-29152380D02*
X1676190Y-29104761D01*
X1628571Y-29057142D01*
X1580952Y-28961904D01*
X1580952Y-28676190D01*
X1628571Y-28580952D01*
X1676190Y-28533333D01*
X1771428Y-28485714D01*
X1914285Y-28485714D01*
X2009523Y-28533333D01*
X2057142Y-28580952D01*
X2104761Y-28676190D01*
X2104761Y-28961904D01*
X2057142Y-29057142D01*
X2009523Y-29104761D01*
X1914285Y-29152380D01*
X1771428Y-29152380D01*
X2533333Y-29152380D02*
X2533333Y-28485714D01*
X2533333Y-28580952D02*
X2580952Y-28533333D01*
X2676190Y-28485714D01*
X2819047Y-28485714D01*
X2914285Y-28533333D01*
X2961904Y-28628571D01*
X2961904Y-29152380D01*
X2961904Y-28628571D02*
X3009523Y-28533333D01*
X3104761Y-28485714D01*
X3247619Y-28485714D01*
X3342857Y-28533333D01*
X3390476Y-28628571D01*
X3390476Y-29152380D01*
X3866666Y-28485714D02*
X3866666Y-29485714D01*
X3866666Y-28533333D02*
X3961904Y-28485714D01*
X4152380Y-28485714D01*
X4247619Y-28533333D01*
X4295238Y-28580952D01*
X4342857Y-28676190D01*
X4342857Y-28961904D01*
X4295238Y-29057142D01*
X4247619Y-29104761D01*
X4152380Y-29152380D01*
X3961904Y-29152380D01*
X3866666Y-29104761D01*
X5200000Y-29152380D02*
X5200000Y-28628571D01*
X5152380Y-28533333D01*
X5057142Y-28485714D01*
X4866666Y-28485714D01*
X4771428Y-28533333D01*
X5200000Y-29104761D02*
X5104761Y-29152380D01*
X4866666Y-29152380D01*
X4771428Y-29104761D01*
X4723809Y-29009523D01*
X4723809Y-28914285D01*
X4771428Y-28819047D01*
X4866666Y-28771428D01*
X5104761Y-28771428D01*
X5200000Y-28723809D01*
X6104761Y-29104761D02*
X6009523Y-29152380D01*
X5819047Y-29152380D01*
X5723809Y-29104761D01*
X5676190Y-29057142D01*
X5628571Y-28961904D01*
X5628571Y-28676190D01*
X5676190Y-28580952D01*
X5723809Y-28533333D01*
X5819047Y-28485714D01*
X6009523Y-28485714D01*
X6104761Y-28533333D01*
X6390476Y-28485714D02*
X6771428Y-28485714D01*
X6533333Y-28152380D02*
X6533333Y-29009523D01*
X6580952Y-29104761D01*
X6676190Y-29152380D01*
X6771428Y-29152380D01*
X6833333Y-18857142D02*
X6785714Y-18904761D01*
X6642857Y-18952380D01*
X6547619Y-18952380D01*
X6404761Y-18904761D01*
X6309523Y-18809523D01*
X6261904Y-18714285D01*
X6214285Y-18523809D01*
X6214285Y-18380952D01*
X6261904Y-18190476D01*
X6309523Y-18095238D01*
X6404761Y-18000000D01*
X6547619Y-17952380D01*
X6642857Y-17952380D01*
X6785714Y-18000000D01*
X6833333Y-18047619D01*
X7214285Y-18047619D02*
X7261904Y-18000000D01*
X7357142Y-17952380D01*
X7595238Y-17952380D01*
X7690476Y-18000000D01*
X7738095Y-18047619D01*
X7785714Y-18142857D01*
X7785714Y-18238095D01*
X7738095Y-18380952D01*
X7166666Y-18952380D01*
X7785714Y-18952380D01*
X8214285Y-18952380D02*
X8214285Y-17952380D01*
X8452380Y-17952380D01*
X8595238Y-18000000D01*
X8690476Y-18095238D01*
X8738095Y-18190476D01*
X8785714Y-18380952D01*
X8785714Y-18523809D01*
X8738095Y-18714285D01*
X8690476Y-18809523D01*
X8595238Y-18904761D01*
X8452380Y-18952380D01*
X8214285Y-18952380D01*
X6833333Y-21357142D02*
X6785714Y-21404761D01*
X6642857Y-21452380D01*
X6547619Y-21452380D01*
X6404761Y-21404761D01*
X6309523Y-21309523D01*
X6261904Y-21214285D01*
X6214285Y-21023809D01*
X6214285Y-20880952D01*
X6261904Y-20690476D01*
X6309523Y-20595238D01*
X6404761Y-20500000D01*
X6547619Y-20452380D01*
X6642857Y-20452380D01*
X6785714Y-20500000D01*
X6833333Y-20547619D01*
X7214285Y-20547619D02*
X7261904Y-20500000D01*
X7357142Y-20452380D01*
X7595238Y-20452380D01*
X7690476Y-20500000D01*
X7738095Y-20547619D01*
X7785714Y-20642857D01*
X7785714Y-20738095D01*
X7738095Y-20880952D01*
X7166666Y-21452380D01*
X7785714Y-21452380D01*
X8785714Y-21357142D02*
X8738095Y-21404761D01*
X8595238Y-21452380D01*
X8500000Y-21452380D01*
X8357142Y-21404761D01*
X8261904Y-21309523D01*
X8214285Y-21214285D01*
X8166666Y-21023809D01*
X8166666Y-20880952D01*
X8214285Y-20690476D01*
X8261904Y-20595238D01*
X8357142Y-20500000D01*
X8500000Y-20452380D01*
X8595238Y-20452380D01*
X8738095Y-20500000D01*
X8785714Y-20547619D01*
X9214285Y-21452380D02*
X9214285Y-20452380D01*
X9785714Y-21452380D02*
X9357142Y-20880952D01*
X9785714Y-20452380D02*
X9214285Y-21023809D01*
X6185714Y-23052380D02*
X6519047Y-24052380D01*
X6852380Y-23052380D01*
X7757142Y-24052380D02*
X7423809Y-23576190D01*
X7185714Y-24052380D02*
X7185714Y-23052380D01*
X7566666Y-23052380D01*
X7661904Y-23100000D01*
X7709523Y-23147619D01*
X7757142Y-23242857D01*
X7757142Y-23385714D01*
X7709523Y-23480952D01*
X7661904Y-23528571D01*
X7566666Y-23576190D01*
X7185714Y-23576190D01*
X8185714Y-23528571D02*
X8519047Y-23528571D01*
X8661904Y-24052380D02*
X8185714Y-24052380D01*
X8185714Y-23052380D01*
X8661904Y-23052380D01*
X9423809Y-23528571D02*
X9090476Y-23528571D01*
X9090476Y-24052380D02*
X9090476Y-23052380D01*
X9566666Y-23052380D01*
X6838095Y-25600000D02*
X6742857Y-25552380D01*
X6600000Y-25552380D01*
X6457142Y-25600000D01*
X6361904Y-25695238D01*
X6314285Y-25790476D01*
X6266666Y-25980952D01*
X6266666Y-26123809D01*
X6314285Y-26314285D01*
X6361904Y-26409523D01*
X6457142Y-26504761D01*
X6600000Y-26552380D01*
X6695238Y-26552380D01*
X6838095Y-26504761D01*
X6885714Y-26457142D01*
X6885714Y-26123809D01*
X6695238Y-26123809D01*
X7314285Y-26552380D02*
X7314285Y-25552380D01*
X7885714Y-26552380D01*
X7885714Y-25552380D01*
X8361904Y-26552380D02*
X8361904Y-25552380D01*
X8600000Y-25552380D01*
X8742857Y-25600000D01*
X8838095Y-25695238D01*
X8885714Y-25790476D01*
X8933333Y-25980952D01*
X8933333Y-26123809D01*
X8885714Y-26314285D01*
X8838095Y-26409523D01*
X8742857Y-26504761D01*
X8600000Y-26552380D01*
X8361904Y-26552380D01*
X41928571Y-27557142D02*
X41880952Y-27604761D01*
X41738095Y-27652380D01*
X41642857Y-27652380D01*
X41500000Y-27604761D01*
X41404761Y-27509523D01*
X41357142Y-27414285D01*
X41309523Y-27223809D01*
X41309523Y-27080952D01*
X41357142Y-26890476D01*
X41404761Y-26795238D01*
X41500000Y-26700000D01*
X41642857Y-26652380D01*
X41738095Y-26652380D01*
X41880952Y-26700000D01*
X41928571Y-26747619D01*
X42309523Y-26747619D02*
X42357142Y-26700000D01*
X42452380Y-26652380D01*
X42690476Y-26652380D01*
X42785714Y-26700000D01*
X42833333Y-26747619D01*
X42880952Y-26842857D01*
X42880952Y-26938095D01*
X42833333Y-27080952D01*
X42261904Y-27652380D01*
X42880952Y-27652380D01*
X43309523Y-27652380D02*
X43309523Y-26652380D01*
X43547619Y-26652380D01*
X43690476Y-26700000D01*
X43785714Y-26795238D01*
X43833333Y-26890476D01*
X43880952Y-27080952D01*
X43880952Y-27223809D01*
X43833333Y-27414285D01*
X43785714Y-27509523D01*
X43690476Y-27604761D01*
X43547619Y-27652380D01*
X43309523Y-27652380D01*
X45023809Y-26604761D02*
X44166666Y-27890476D01*
X45214285Y-26652380D02*
X45785714Y-26652380D01*
X45500000Y-27652380D02*
X45500000Y-26652380D01*
X46690476Y-27557142D02*
X46642857Y-27604761D01*
X46500000Y-27652380D01*
X46404761Y-27652380D01*
X46261904Y-27604761D01*
X46166666Y-27509523D01*
X46119047Y-27414285D01*
X46071428Y-27223809D01*
X46071428Y-27080952D01*
X46119047Y-26890476D01*
X46166666Y-26795238D01*
X46261904Y-26700000D01*
X46404761Y-26652380D01*
X46500000Y-26652380D01*
X46642857Y-26700000D01*
X46690476Y-26747619D01*
X47119047Y-27652380D02*
X47119047Y-26652380D01*
X47690476Y-27652380D02*
X47261904Y-27080952D01*
X47690476Y-26652380D02*
X47119047Y-27223809D01*
X40476190Y-24957142D02*
X40428571Y-25004761D01*
X40285714Y-25052380D01*
X40190476Y-25052380D01*
X40047619Y-25004761D01*
X39952380Y-24909523D01*
X39904761Y-24814285D01*
X39857142Y-24623809D01*
X39857142Y-24480952D01*
X39904761Y-24290476D01*
X39952380Y-24195238D01*
X40047619Y-24100000D01*
X40190476Y-24052380D01*
X40285714Y-24052380D01*
X40428571Y-24100000D01*
X40476190Y-24147619D01*
X40857142Y-24147619D02*
X40904761Y-24100000D01*
X41000000Y-24052380D01*
X41238095Y-24052380D01*
X41333333Y-24100000D01*
X41380952Y-24147619D01*
X41428571Y-24242857D01*
X41428571Y-24338095D01*
X41380952Y-24480952D01*
X40809523Y-25052380D01*
X41428571Y-25052380D01*
X41857142Y-25052380D02*
X41857142Y-24052380D01*
X42095238Y-24052380D01*
X42238095Y-24100000D01*
X42333333Y-24195238D01*
X42380952Y-24290476D01*
X42428571Y-24480952D01*
X42428571Y-24623809D01*
X42380952Y-24814285D01*
X42333333Y-24909523D01*
X42238095Y-25004761D01*
X42095238Y-25052380D01*
X41857142Y-25052380D01*
X42857142Y-25052380D02*
X42857142Y-24052380D01*
X43428571Y-25052380D02*
X43000000Y-24480952D01*
X43428571Y-24052380D02*
X42857142Y-24623809D01*
X43809523Y-25004761D02*
X43904761Y-25052380D01*
X44095238Y-25052380D01*
X44190476Y-25004761D01*
X44238095Y-24909523D01*
X44238095Y-24861904D01*
X44190476Y-24766666D01*
X44095238Y-24719047D01*
X43952380Y-24719047D01*
X43857142Y-24671428D01*
X43809523Y-24576190D01*
X43809523Y-24528571D01*
X43857142Y-24433333D01*
X43952380Y-24385714D01*
X44095238Y-24385714D01*
X44190476Y-24433333D01*
X45380952Y-24004761D02*
X44523809Y-25290476D01*
X45571428Y-24052380D02*
X46142857Y-24052380D01*
X45857142Y-25052380D02*
X45857142Y-24052380D01*
X46476190Y-25052380D02*
X46476190Y-24052380D01*
X46809523Y-24766666D01*
X47142857Y-24052380D01*
X47142857Y-25052380D01*
X47571428Y-25004761D02*
X47714285Y-25052380D01*
X47952380Y-25052380D01*
X48047619Y-25004761D01*
X48095238Y-24957142D01*
X48142857Y-24861904D01*
X48142857Y-24766666D01*
X48095238Y-24671428D01*
X48047619Y-24623809D01*
X47952380Y-24576190D01*
X47761904Y-24528571D01*
X47666666Y-24480952D01*
X47619047Y-24433333D01*
X47571428Y-24338095D01*
X47571428Y-24242857D01*
X47619047Y-24147619D01*
X47666666Y-24100000D01*
X47761904Y-24052380D01*
X48000000Y-24052380D01*
X48142857Y-24100000D01*
X41500000Y-22557142D02*
X41452380Y-22604761D01*
X41309523Y-22652380D01*
X41214285Y-22652380D01*
X41071428Y-22604761D01*
X40976190Y-22509523D01*
X40928571Y-22414285D01*
X40880952Y-22223809D01*
X40880952Y-22080952D01*
X40928571Y-21890476D01*
X40976190Y-21795238D01*
X41071428Y-21700000D01*
X41214285Y-21652380D01*
X41309523Y-21652380D01*
X41452380Y-21700000D01*
X41500000Y-21747619D01*
X41880952Y-21747619D02*
X41928571Y-21700000D01*
X42023809Y-21652380D01*
X42261904Y-21652380D01*
X42357142Y-21700000D01*
X42404761Y-21747619D01*
X42452380Y-21842857D01*
X42452380Y-21938095D01*
X42404761Y-22080952D01*
X41833333Y-22652380D01*
X42452380Y-22652380D01*
X42880952Y-22652380D02*
X42880952Y-21652380D01*
X43119047Y-21652380D01*
X43261904Y-21700000D01*
X43357142Y-21795238D01*
X43404761Y-21890476D01*
X43452380Y-22080952D01*
X43452380Y-22223809D01*
X43404761Y-22414285D01*
X43357142Y-22509523D01*
X43261904Y-22604761D01*
X43119047Y-22652380D01*
X42880952Y-22652380D01*
X43833333Y-22604761D02*
X43928571Y-22652380D01*
X44119047Y-22652380D01*
X44214285Y-22604761D01*
X44261904Y-22509523D01*
X44261904Y-22461904D01*
X44214285Y-22366666D01*
X44119047Y-22319047D01*
X43976190Y-22319047D01*
X43880952Y-22271428D01*
X43833333Y-22176190D01*
X43833333Y-22128571D01*
X43880952Y-22033333D01*
X43976190Y-21985714D01*
X44119047Y-21985714D01*
X44214285Y-22033333D01*
X45404761Y-21604761D02*
X44547619Y-22890476D01*
X45595238Y-21652380D02*
X46166666Y-21652380D01*
X45880952Y-22652380D02*
X45880952Y-21652380D01*
X46500000Y-22652380D02*
X46500000Y-21652380D01*
X46738095Y-21652380D01*
X46880952Y-21700000D01*
X46976190Y-21795238D01*
X47023809Y-21890476D01*
X47071428Y-22080952D01*
X47071428Y-22223809D01*
X47023809Y-22414285D01*
X46976190Y-22509523D01*
X46880952Y-22604761D01*
X46738095Y-22652380D01*
X46500000Y-22652380D01*
X47690476Y-21652380D02*
X47880952Y-21652380D01*
X47976190Y-21700000D01*
X48071428Y-21795238D01*
X48119047Y-21985714D01*
X48119047Y-22319047D01*
X48071428Y-22509523D01*
X47976190Y-22604761D01*
X47880952Y-22652380D01*
X47690476Y-22652380D01*
X47595238Y-22604761D01*
X47500000Y-22509523D01*
X47452380Y-22319047D01*
X47452380Y-21985714D01*
X47500000Y-21795238D01*
X47595238Y-21700000D01*
X47690476Y-21652380D01*
X41690476Y-19957142D02*
X41642857Y-20004761D01*
X41500000Y-20052380D01*
X41404761Y-20052380D01*
X41261904Y-20004761D01*
X41166666Y-19909523D01*
X41119047Y-19814285D01*
X41071428Y-19623809D01*
X41071428Y-19480952D01*
X41119047Y-19290476D01*
X41166666Y-19195238D01*
X41261904Y-19100000D01*
X41404761Y-19052380D01*
X41500000Y-19052380D01*
X41642857Y-19100000D01*
X41690476Y-19147619D01*
X42071428Y-19147619D02*
X42119047Y-19100000D01*
X42214285Y-19052380D01*
X42452380Y-19052380D01*
X42547619Y-19100000D01*
X42595238Y-19147619D01*
X42642857Y-19242857D01*
X42642857Y-19338095D01*
X42595238Y-19480952D01*
X42023809Y-20052380D01*
X42642857Y-20052380D01*
X43642857Y-19957142D02*
X43595238Y-20004761D01*
X43452380Y-20052380D01*
X43357142Y-20052380D01*
X43214285Y-20004761D01*
X43119047Y-19909523D01*
X43071428Y-19814285D01*
X43023809Y-19623809D01*
X43023809Y-19480952D01*
X43071428Y-19290476D01*
X43119047Y-19195238D01*
X43214285Y-19100000D01*
X43357142Y-19052380D01*
X43452380Y-19052380D01*
X43595238Y-19100000D01*
X43642857Y-19147619D01*
X44071428Y-20052380D02*
X44071428Y-19052380D01*
X44642857Y-20052380D02*
X44214285Y-19480952D01*
X44642857Y-19052380D02*
X44071428Y-19623809D01*
X45785714Y-19004761D02*
X44928571Y-20290476D01*
X45976190Y-19052380D02*
X46547619Y-19052380D01*
X46261904Y-20052380D02*
X46261904Y-19052380D01*
X46880952Y-20052380D02*
X46880952Y-19052380D01*
X47119047Y-19052380D01*
X47261904Y-19100000D01*
X47357142Y-19195238D01*
X47404761Y-19290476D01*
X47452380Y-19480952D01*
X47452380Y-19623809D01*
X47404761Y-19814285D01*
X47357142Y-19909523D01*
X47261904Y-20004761D01*
X47119047Y-20052380D01*
X46880952Y-20052380D01*
X47880952Y-20052380D02*
X47880952Y-19052380D01*
X45838095Y-16500000D02*
X45742857Y-16452380D01*
X45600000Y-16452380D01*
X45457142Y-16500000D01*
X45361904Y-16595238D01*
X45314285Y-16690476D01*
X45266666Y-16880952D01*
X45266666Y-17023809D01*
X45314285Y-17214285D01*
X45361904Y-17309523D01*
X45457142Y-17404761D01*
X45600000Y-17452380D01*
X45695238Y-17452380D01*
X45838095Y-17404761D01*
X45885714Y-17357142D01*
X45885714Y-17023809D01*
X45695238Y-17023809D01*
X46314285Y-17452380D02*
X46314285Y-16452380D01*
X46885714Y-17452380D01*
X46885714Y-16452380D01*
X47361904Y-17452380D02*
X47361904Y-16452380D01*
X47600000Y-16452380D01*
X47742857Y-16500000D01*
X47838095Y-16595238D01*
X47885714Y-16690476D01*
X47933333Y-16880952D01*
X47933333Y-17023809D01*
X47885714Y-17214285D01*
X47838095Y-17309523D01*
X47742857Y-17404761D01*
X47600000Y-17452380D01*
X47361904Y-17452380D01*
D12*
X32842857Y-27900000D02*
X32728571Y-27842857D01*
X32557142Y-27842857D01*
X32385714Y-27900000D01*
X32271428Y-28014285D01*
X32214285Y-28128571D01*
X32157142Y-28357142D01*
X32157142Y-28528571D01*
X32214285Y-28757142D01*
X32271428Y-28871428D01*
X32385714Y-28985714D01*
X32557142Y-29042857D01*
X32671428Y-29042857D01*
X32842857Y-28985714D01*
X32900000Y-28928571D01*
X32900000Y-28528571D01*
X32671428Y-28528571D01*
X33242857Y-27842857D02*
X33928571Y-27842857D01*
X33585714Y-29042857D02*
X33585714Y-27842857D01*
X34271428Y-28700000D02*
X34842857Y-28700000D01*
X34157142Y-29042857D02*
X34557142Y-27842857D01*
X34957142Y-29042857D01*
X35985714Y-27900000D02*
X35871428Y-27842857D01*
X35700000Y-27842857D01*
X35528571Y-27900000D01*
X35414285Y-28014285D01*
X35357142Y-28128571D01*
X35300000Y-28357142D01*
X35300000Y-28528571D01*
X35357142Y-28757142D01*
X35414285Y-28871428D01*
X35528571Y-28985714D01*
X35700000Y-29042857D01*
X35814285Y-29042857D01*
X35985714Y-28985714D01*
X36042857Y-28928571D01*
X36042857Y-28528571D01*
X35814285Y-28528571D01*
X37300000Y-27842857D02*
X37700000Y-29042857D01*
X38100000Y-27842857D01*
X38385714Y-27842857D02*
X39128571Y-27842857D01*
X38728571Y-28300000D01*
X38900000Y-28300000D01*
X39014285Y-28357142D01*
X39071428Y-28414285D01*
X39128571Y-28528571D01*
X39128571Y-28814285D01*
X39071428Y-28928571D01*
X39014285Y-28985714D01*
X38900000Y-29042857D01*
X38557142Y-29042857D01*
X38442857Y-28985714D01*
X38385714Y-28928571D01*
X39642857Y-28928571D02*
X39700000Y-28985714D01*
X39642857Y-29042857D01*
X39585714Y-28985714D01*
X39642857Y-28928571D01*
X39642857Y-29042857D01*
X40842857Y-29042857D02*
X40157142Y-29042857D01*
X40500000Y-29042857D02*
X40500000Y-27842857D01*
X40385714Y-28014285D01*
X40271428Y-28128571D01*
X40157142Y-28185714D01*
D13*
X11666666Y-25233333D02*
X12466666Y-25233333D01*
X12066666Y-26633333D02*
X12066666Y-25233333D01*
X13200000Y-25233333D02*
X13466666Y-25233333D01*
X13600000Y-25300000D01*
X13733333Y-25433333D01*
X13800000Y-25700000D01*
X13800000Y-26166666D01*
X13733333Y-26433333D01*
X13600000Y-26566666D01*
X13466666Y-26633333D01*
X13200000Y-26633333D01*
X13066666Y-26566666D01*
X12933333Y-26433333D01*
X12866666Y-26166666D01*
X12866666Y-25700000D01*
X12933333Y-25433333D01*
X13066666Y-25300000D01*
X13200000Y-25233333D01*
X14400000Y-26633333D02*
X14400000Y-25233333D01*
X14933333Y-25233333D01*
X15066666Y-25300000D01*
X15133333Y-25366666D01*
X15200000Y-25500000D01*
X15200000Y-25700000D01*
X15133333Y-25833333D01*
X15066666Y-25900000D01*
X14933333Y-25966666D01*
X14400000Y-25966666D01*
D14*
X26300000Y-16865000D02*
X22415000Y-16865000D01*
X22415000Y-16865000D02*
X22415000Y-19135000D01*
X22415000Y-19135000D02*
X26300000Y-19135000D01*
X51340000Y-15670000D02*
X51340000Y-28490000D01*
X51340000Y-28490000D02*
X54000000Y-28490000D01*
X54000000Y-28490000D02*
X54000000Y-15670000D01*
X54000000Y-15670000D02*
X51340000Y-15670000D01*
X54000000Y-16620000D02*
X60000000Y-16620000D01*
X60000000Y-16620000D02*
X60000000Y-17380000D01*
X60000000Y-17380000D02*
X54000000Y-17380000D01*
X54000000Y-16680000D02*
X60000000Y-16680000D01*
X54000000Y-16800000D02*
X60000000Y-16800000D01*
X54000000Y-16920000D02*
X60000000Y-16920000D01*
X54000000Y-17040000D02*
X60000000Y-17040000D01*
X54000000Y-17160000D02*
X60000000Y-17160000D01*
X54000000Y-17280000D02*
X60000000Y-17280000D01*
X51010000Y-16620000D02*
X51340000Y-16620000D01*
X51010000Y-17380000D02*
X51340000Y-17380000D01*
X51340000Y-18270000D02*
X54000000Y-18270000D01*
X54000000Y-19160000D02*
X60000000Y-19160000D01*
X60000000Y-19160000D02*
X60000000Y-19920000D01*
X60000000Y-19920000D02*
X54000000Y-19920000D01*
X50942929Y-19160000D02*
X51340000Y-19160000D01*
X50942929Y-19920000D02*
X51340000Y-19920000D01*
X51340000Y-20810000D02*
X54000000Y-20810000D01*
X54000000Y-21700000D02*
X60000000Y-21700000D01*
X60000000Y-21700000D02*
X60000000Y-22460000D01*
X60000000Y-22460000D02*
X54000000Y-22460000D01*
X50942929Y-21700000D02*
X51340000Y-21700000D01*
X50942929Y-22460000D02*
X51340000Y-22460000D01*
X51340000Y-23350000D02*
X54000000Y-23350000D01*
X54000000Y-24240000D02*
X60000000Y-24240000D01*
X60000000Y-24240000D02*
X60000000Y-25000000D01*
X60000000Y-25000000D02*
X54000000Y-25000000D01*
X50942929Y-24240000D02*
X51340000Y-24240000D01*
X50942929Y-25000000D02*
X51340000Y-25000000D01*
X51340000Y-25890000D02*
X54000000Y-25890000D01*
X54000000Y-26780000D02*
X60000000Y-26780000D01*
X60000000Y-26780000D02*
X60000000Y-27540000D01*
X60000000Y-27540000D02*
X54000000Y-27540000D01*
X50942929Y-26780000D02*
X51340000Y-26780000D01*
X50942929Y-27540000D02*
X51340000Y-27540000D01*
X48630000Y-17000000D02*
X48630000Y-15730000D01*
X48630000Y-15730000D02*
X49900000Y-15730000D01*
X2660000Y-27330000D02*
X2660000Y-17050000D01*
X2660000Y-17050000D02*
X0Y-17050000D01*
X0Y-17050000D02*
X0Y-27330000D01*
X0Y-27330000D02*
X2660000Y-27330000D01*
X0Y-26380000D02*
X-6000000Y-26380000D01*
X-6000000Y-26380000D02*
X-6000000Y-25620000D01*
X-6000000Y-25620000D02*
X0Y-25620000D01*
X0Y-26320000D02*
X-6000000Y-26320000D01*
X0Y-26200000D02*
X-6000000Y-26200000D01*
X0Y-26080000D02*
X-6000000Y-26080000D01*
X0Y-25960000D02*
X-6000000Y-25960000D01*
X0Y-25840000D02*
X-6000000Y-25840000D01*
X0Y-25720000D02*
X-6000000Y-25720000D01*
X2990000Y-26380000D02*
X2660000Y-26380000D01*
X2990000Y-25620000D02*
X2660000Y-25620000D01*
X2660000Y-24730000D02*
X0Y-24730000D01*
X0Y-23840000D02*
X-6000000Y-23840000D01*
X-6000000Y-23840000D02*
X-6000000Y-23080000D01*
X-6000000Y-23080000D02*
X0Y-23080000D01*
X3057071Y-23840000D02*
X2660000Y-23840000D01*
X3057071Y-23080000D02*
X2660000Y-23080000D01*
X2660000Y-22190000D02*
X0Y-22190000D01*
X0Y-21300000D02*
X-6000000Y-21300000D01*
X-6000000Y-21300000D02*
X-6000000Y-20540000D01*
X-6000000Y-20540000D02*
X0Y-20540000D01*
X3057071Y-21300000D02*
X2660000Y-21300000D01*
X3057071Y-20540000D02*
X2660000Y-20540000D01*
X2660000Y-19650000D02*
X0Y-19650000D01*
X0Y-18760000D02*
X-6000000Y-18760000D01*
X-6000000Y-18760000D02*
X-6000000Y-18000000D01*
X-6000000Y-18000000D02*
X0Y-18000000D01*
X3057071Y-18760000D02*
X2660000Y-18760000D01*
X3057071Y-18000000D02*
X2660000Y-18000000D01*
X5370000Y-26000000D02*
X5370000Y-27270000D01*
X5370000Y-27270000D02*
X4100000Y-27270000D01*
X30002064Y-18910000D02*
X28797936Y-18910000D01*
X30002064Y-17090000D02*
X28797936Y-17090000D01*
X29300000Y-21500000D02*
X24800000Y-21500000D01*
X30550000Y-25500000D02*
X30550000Y-24000000D01*
X24800000Y-28000000D02*
X29300000Y-28000000D01*
X23550000Y-24000000D02*
X23550000Y-25500000D01*
X20800000Y-18000000D02*
G75*
G03X20800000Y-18000000I-1800000J0D01*
G01*
X36800000Y-18000000D02*
G75*
G03X36800000Y-18000000I-1800000J0D01*
G01*
X20630000Y-13270000D02*
X21900000Y-13270000D01*
X20630000Y-12000000D02*
X20630000Y-13270000D01*
X16550000Y1480000D02*
X37410000Y1480000D01*
X16550000Y-7870000D02*
X16550000Y1480000D01*
X37410000Y-7870000D02*
X37410000Y1480000D01*
X37410000Y-7870000D02*
X16550000Y-7870000D01*
X24730000Y-7870000D02*
X24730000Y1480000D01*
X29230000Y-7870000D02*
X29230000Y1480000D01*
D11*
X23961904Y-16632380D02*
X23961904Y-15632380D01*
X24200000Y-15632380D01*
X24342857Y-15680000D01*
X24438095Y-15775238D01*
X24485714Y-15870476D01*
X24533333Y-16060952D01*
X24533333Y-16203809D01*
X24485714Y-16394285D01*
X24438095Y-16489523D01*
X24342857Y-16584761D01*
X24200000Y-16632380D01*
X23961904Y-16632380D01*
X25485714Y-16632380D02*
X24914285Y-16632380D01*
X25200000Y-16632380D02*
X25200000Y-15632380D01*
X25104761Y-15775238D01*
X25009523Y-15870476D01*
X24914285Y-15918095D01*
X47566666Y-28552380D02*
X47566666Y-29266666D01*
X47519047Y-29409523D01*
X47423809Y-29504761D01*
X47280952Y-29552380D01*
X47185714Y-29552380D01*
X47947619Y-28552380D02*
X48566666Y-28552380D01*
X48233333Y-28933333D01*
X48376190Y-28933333D01*
X48471428Y-28980952D01*
X48519047Y-29028571D01*
X48566666Y-29123809D01*
X48566666Y-29361904D01*
X48519047Y-29457142D01*
X48471428Y-29504761D01*
X48376190Y-29552380D01*
X48090476Y-29552380D01*
X47995238Y-29504761D01*
X47947619Y-29457142D01*
X5666666Y-15952380D02*
X5666666Y-16666666D01*
X5619047Y-16809523D01*
X5523809Y-16904761D01*
X5380952Y-16952380D01*
X5285714Y-16952380D01*
X6571428Y-16285714D02*
X6571428Y-16952380D01*
X6333333Y-15904761D02*
X6095238Y-16619047D01*
X6714285Y-16619047D01*
X29233333Y-16652380D02*
X28900000Y-16176190D01*
X28661904Y-16652380D02*
X28661904Y-15652380D01*
X29042857Y-15652380D01*
X29138095Y-15700000D01*
X29185714Y-15747619D01*
X29233333Y-15842857D01*
X29233333Y-15985714D01*
X29185714Y-16080952D01*
X29138095Y-16128571D01*
X29042857Y-16176190D01*
X28661904Y-16176190D01*
X30185714Y-16652380D02*
X29614285Y-16652380D01*
X29900000Y-16652380D02*
X29900000Y-15652380D01*
X29804761Y-15795238D01*
X29709523Y-15890476D01*
X29614285Y-15938095D01*
X25716666Y-29404761D02*
X25859523Y-29452380D01*
X26097619Y-29452380D01*
X26192857Y-29404761D01*
X26240476Y-29357142D01*
X26288095Y-29261904D01*
X26288095Y-29166666D01*
X26240476Y-29071428D01*
X26192857Y-29023809D01*
X26097619Y-28976190D01*
X25907142Y-28928571D01*
X25811904Y-28880952D01*
X25764285Y-28833333D01*
X25716666Y-28738095D01*
X25716666Y-28642857D01*
X25764285Y-28547619D01*
X25811904Y-28500000D01*
X25907142Y-28452380D01*
X26145238Y-28452380D01*
X26288095Y-28500000D01*
X26621428Y-28452380D02*
X26859523Y-29452380D01*
X27050000Y-28738095D01*
X27240476Y-29452380D01*
X27478571Y-28452380D01*
X28383333Y-29452380D02*
X27811904Y-29452380D01*
X28097619Y-29452380D02*
X28097619Y-28452380D01*
X28002380Y-28595238D01*
X27907142Y-28690476D01*
X27811904Y-28738095D01*
X17738095Y-20352380D02*
X18309523Y-20352380D01*
X18023809Y-21352380D02*
X18023809Y-20352380D01*
X18642857Y-21352380D02*
X18642857Y-20352380D01*
X19023809Y-20352380D01*
X19119047Y-20400000D01*
X19166666Y-20447619D01*
X19214285Y-20542857D01*
X19214285Y-20685714D01*
X19166666Y-20780952D01*
X19119047Y-20828571D01*
X19023809Y-20876190D01*
X18642857Y-20876190D01*
X20166666Y-21352380D02*
X19595238Y-21352380D01*
X19880952Y-21352380D02*
X19880952Y-20352380D01*
X19785714Y-20495238D01*
X19690476Y-20590476D01*
X19595238Y-20638095D01*
X33738095Y-20452380D02*
X34309523Y-20452380D01*
X34023809Y-21452380D02*
X34023809Y-20452380D01*
X34642857Y-21452380D02*
X34642857Y-20452380D01*
X35023809Y-20452380D01*
X35119047Y-20500000D01*
X35166666Y-20547619D01*
X35214285Y-20642857D01*
X35214285Y-20785714D01*
X35166666Y-20880952D01*
X35119047Y-20928571D01*
X35023809Y-20976190D01*
X34642857Y-20976190D01*
X35595238Y-20547619D02*
X35642857Y-20500000D01*
X35738095Y-20452380D01*
X35976190Y-20452380D01*
X36071428Y-20500000D01*
X36119047Y-20547619D01*
X36166666Y-20642857D01*
X36166666Y-20738095D01*
X36119047Y-20880952D01*
X35547619Y-21452380D01*
X36166666Y-21452380D01*
X18066666Y-11452380D02*
X18066666Y-12166666D01*
X18019047Y-12309523D01*
X17923809Y-12404761D01*
X17780952Y-12452380D01*
X17685714Y-12452380D01*
X19066666Y-12452380D02*
X18495238Y-12452380D01*
X18780952Y-12452380D02*
X18780952Y-11452380D01*
X18685714Y-11595238D01*
X18590476Y-11690476D01*
X18495238Y-11738095D01*
M02*
