G04 #@! TF.GenerationSoftware,KiCad,Pcbnew,(5.1.4)-1*
G04 #@! TF.CreationDate,2020-01-18T16:32:49+01:00*
G04 #@! TF.ProjectId,project_gtag,70726f6a-6563-4745-9f67-7461672e6b69,V3*
G04 #@! TF.SameCoordinates,PX7735940PY44aa200*
G04 #@! TF.FileFunction,Legend,Bot*
G04 #@! TF.FilePolarity,Positive*
%FSLAX46Y46*%
G04 Gerber Fmt 4.6, Leading zero omitted, Abs format (unit mm)*
G04 Created by KiCad (PCBNEW (5.1.4)-1) date 2020-01-18 16:32:49*
%MOMM*%
%LPD*%
G04 APERTURE LIST*
%ADD10C,0.350000*%
%ADD11C,0.120000*%
%ADD12C,0.150000*%
G04 APERTURE END LIST*
D10*
X40666666Y-25900000D02*
X40466666Y-25966666D01*
X40400000Y-26033333D01*
X40333333Y-26166666D01*
X40333333Y-26366666D01*
X40400000Y-26500000D01*
X40466666Y-26566666D01*
X40600000Y-26633333D01*
X41133333Y-26633333D01*
X41133333Y-25233333D01*
X40666666Y-25233333D01*
X40533333Y-25300000D01*
X40466666Y-25366666D01*
X40400000Y-25500000D01*
X40400000Y-25633333D01*
X40466666Y-25766666D01*
X40533333Y-25833333D01*
X40666666Y-25900000D01*
X41133333Y-25900000D01*
X39466666Y-25233333D02*
X39200000Y-25233333D01*
X39066666Y-25300000D01*
X38933333Y-25433333D01*
X38866666Y-25700000D01*
X38866666Y-26166666D01*
X38933333Y-26433333D01*
X39066666Y-26566666D01*
X39200000Y-26633333D01*
X39466666Y-26633333D01*
X39600000Y-26566666D01*
X39733333Y-26433333D01*
X39800000Y-26166666D01*
X39800000Y-25700000D01*
X39733333Y-25433333D01*
X39600000Y-25300000D01*
X39466666Y-25233333D01*
X38466666Y-25233333D02*
X37666666Y-25233333D01*
X38066666Y-26633333D02*
X38066666Y-25233333D01*
D11*
X35710000Y-10197936D02*
X35710000Y-11402064D01*
X33890000Y-10197936D02*
X33890000Y-11402064D01*
X16490000Y-23597936D02*
X16490000Y-24802064D01*
X18310000Y-23597936D02*
X18310000Y-24802064D01*
X19490000Y-23597936D02*
X19490000Y-24802064D01*
X21310000Y-23597936D02*
X21310000Y-24802064D01*
X7897936Y-21810000D02*
X9102064Y-21810000D01*
X7897936Y-19990000D02*
X9102064Y-19990000D01*
X9102064Y-19310000D02*
X7897936Y-19310000D01*
X9102064Y-17490000D02*
X7897936Y-17490000D01*
X9102064Y-24410000D02*
X7897936Y-24410000D01*
X9102064Y-22590000D02*
X7897936Y-22590000D01*
D12*
X37057142Y-10633333D02*
X37104761Y-10585714D01*
X37152380Y-10442857D01*
X37152380Y-10347619D01*
X37104761Y-10204761D01*
X37009523Y-10109523D01*
X36914285Y-10061904D01*
X36723809Y-10014285D01*
X36580952Y-10014285D01*
X36390476Y-10061904D01*
X36295238Y-10109523D01*
X36200000Y-10204761D01*
X36152380Y-10347619D01*
X36152380Y-10442857D01*
X36200000Y-10585714D01*
X36247619Y-10633333D01*
X37152380Y-11585714D02*
X37152380Y-11014285D01*
X37152380Y-11300000D02*
X36152380Y-11300000D01*
X36295238Y-11204761D01*
X36390476Y-11109523D01*
X36438095Y-11014285D01*
X17566666Y-27757142D02*
X17614285Y-27804761D01*
X17757142Y-27852380D01*
X17852380Y-27852380D01*
X17995238Y-27804761D01*
X18090476Y-27709523D01*
X18138095Y-27614285D01*
X18185714Y-27423809D01*
X18185714Y-27280952D01*
X18138095Y-27090476D01*
X18090476Y-26995238D01*
X17995238Y-26900000D01*
X17852380Y-26852380D01*
X17757142Y-26852380D01*
X17614285Y-26900000D01*
X17566666Y-26947619D01*
X17185714Y-26947619D02*
X17138095Y-26900000D01*
X17042857Y-26852380D01*
X16804761Y-26852380D01*
X16709523Y-26900000D01*
X16661904Y-26947619D01*
X16614285Y-27042857D01*
X16614285Y-27138095D01*
X16661904Y-27280952D01*
X17233333Y-27852380D01*
X16614285Y-27852380D01*
X20566666Y-27757142D02*
X20614285Y-27804761D01*
X20757142Y-27852380D01*
X20852380Y-27852380D01*
X20995238Y-27804761D01*
X21090476Y-27709523D01*
X21138095Y-27614285D01*
X21185714Y-27423809D01*
X21185714Y-27280952D01*
X21138095Y-27090476D01*
X21090476Y-26995238D01*
X20995238Y-26900000D01*
X20852380Y-26852380D01*
X20757142Y-26852380D01*
X20614285Y-26900000D01*
X20566666Y-26947619D01*
X20233333Y-26852380D02*
X19614285Y-26852380D01*
X19947619Y-27233333D01*
X19804761Y-27233333D01*
X19709523Y-27280952D01*
X19661904Y-27328571D01*
X19614285Y-27423809D01*
X19614285Y-27661904D01*
X19661904Y-27757142D01*
X19709523Y-27804761D01*
X19804761Y-27852380D01*
X20090476Y-27852380D01*
X20185714Y-27804761D01*
X20233333Y-27757142D01*
X12266666Y-21352380D02*
X12600000Y-20876190D01*
X12838095Y-21352380D02*
X12838095Y-20352380D01*
X12457142Y-20352380D01*
X12361904Y-20400000D01*
X12314285Y-20447619D01*
X12266666Y-20542857D01*
X12266666Y-20685714D01*
X12314285Y-20780952D01*
X12361904Y-20828571D01*
X12457142Y-20876190D01*
X12838095Y-20876190D01*
X11885714Y-20447619D02*
X11838095Y-20400000D01*
X11742857Y-20352380D01*
X11504761Y-20352380D01*
X11409523Y-20400000D01*
X11361904Y-20447619D01*
X11314285Y-20542857D01*
X11314285Y-20638095D01*
X11361904Y-20780952D01*
X11933333Y-21352380D01*
X11314285Y-21352380D01*
X12266666Y-18852380D02*
X12600000Y-18376190D01*
X12838095Y-18852380D02*
X12838095Y-17852380D01*
X12457142Y-17852380D01*
X12361904Y-17900000D01*
X12314285Y-17947619D01*
X12266666Y-18042857D01*
X12266666Y-18185714D01*
X12314285Y-18280952D01*
X12361904Y-18328571D01*
X12457142Y-18376190D01*
X12838095Y-18376190D01*
X11933333Y-17852380D02*
X11314285Y-17852380D01*
X11647619Y-18233333D01*
X11504761Y-18233333D01*
X11409523Y-18280952D01*
X11361904Y-18328571D01*
X11314285Y-18423809D01*
X11314285Y-18661904D01*
X11361904Y-18757142D01*
X11409523Y-18804761D01*
X11504761Y-18852380D01*
X11790476Y-18852380D01*
X11885714Y-18804761D01*
X11933333Y-18757142D01*
X12266666Y-23952380D02*
X12600000Y-23476190D01*
X12838095Y-23952380D02*
X12838095Y-22952380D01*
X12457142Y-22952380D01*
X12361904Y-23000000D01*
X12314285Y-23047619D01*
X12266666Y-23142857D01*
X12266666Y-23285714D01*
X12314285Y-23380952D01*
X12361904Y-23428571D01*
X12457142Y-23476190D01*
X12838095Y-23476190D01*
X11409523Y-23285714D02*
X11409523Y-23952380D01*
X11647619Y-22904761D02*
X11885714Y-23619047D01*
X11266666Y-23619047D01*
M02*
